<?xml version="1.0" encoding="utf-8"?>
<!-- Generator: Adobe Illustrator 26.0.2, SVG Export Plug-In . SVG Version: 6.00 Build 0)  -->
<svg version="1.1" id="Neo" xmlns="http://www.w3.org/2000/svg" xmlns:xlink="http://www.w3.org/1999/xlink" x="0px" y="0px"
	 viewBox="0 0 500 500" style="enable-background:new 0 0 500 500;" xml:space="preserve">
<style type="text/css">
	.st0{fill:#3E7438;}
	.st1{fill:#090B0C;}
	.st2{fill:#72B662;}
</style>
<circle id="Background" cx="250" cy="250" r="250"/>
<g id="Numbers_00000048470317435747969360000004567197244414637750_">
	<g>
		<g>
			<path class="st0" d="M163.66,63.72c-6.63,0-9.95-4.93-9.95-14.8c0-10.14,3.32-15.21,9.95-15.21s9.95,5.07,9.95,15.21
				C173.61,58.79,170.29,63.72,163.66,63.72z M163.66,59.94c3.7,0,5.55-3.67,5.55-11.02c0-7.62-1.85-11.43-5.55-11.43
				s-5.55,3.81-5.55,11.43C158.1,56.27,159.95,59.94,163.66,59.94z M163.66,52c-0.92,0-1.66-0.28-2.23-0.85
				c-0.57-0.57-0.85-1.31-0.85-2.23c0-0.93,0.28-1.68,0.85-2.24c0.57-0.56,1.31-0.84,2.23-0.84c0.93,0,1.68,0.28,2.24,0.84
				c0.56,0.56,0.84,1.31,0.84,2.24c0,0.92-0.28,1.66-0.84,2.23C165.33,51.72,164.59,52,163.66,52z"/>
			<path class="st0" d="M179.49,63.31V59.4h7.81v3.91H179.49z M179.9,40.74v-4.15l6.99-2.47v4.23L179.9,40.74z M186.89,63.31V34.12
				H191v29.19H186.89z M190.59,63.31V59.4h7.03v3.91H190.59z"/>
			<path class="st0" d="M204.16,63.31V59.4h7.81v3.91H204.16z M204.57,40.74v-4.15l6.99-2.47v4.23L204.57,40.74z M211.56,63.31
				V34.12h4.11v29.19H211.56z M215.26,63.31V59.4h7.03v3.91H215.26z"/>
			<path class="st0" d="M237.67,63.72c-6.63,0-9.95-4.93-9.95-14.8c0-10.14,3.32-15.21,9.95-15.21s9.95,5.07,9.95,15.21
				C247.62,58.79,244.3,63.72,237.67,63.72z M237.67,59.94c3.7,0,5.55-3.67,5.55-11.02c0-7.62-1.85-11.43-5.55-11.43
				s-5.55,3.81-5.55,11.43C232.12,56.27,233.97,59.94,237.67,59.94z M237.67,52c-0.92,0-1.66-0.28-2.23-0.85
				c-0.57-0.57-0.85-1.31-0.85-2.23c0-0.93,0.28-1.68,0.85-2.24c0.57-0.56,1.31-0.84,2.23-0.84c0.93,0,1.68,0.28,2.24,0.84
				c0.56,0.56,0.84,1.31,0.84,2.24c0,0.92-0.28,1.66-0.84,2.23C239.35,51.72,238.6,52,237.67,52z"/>
			<path class="st0" d="M262.34,63.72c-6.63,0-9.95-4.93-9.95-14.8c0-10.14,3.32-15.21,9.95-15.21s9.95,5.07,9.95,15.21
				C272.29,58.79,268.97,63.72,262.34,63.72z M262.34,59.94c3.7,0,5.55-3.67,5.55-11.02c0-7.62-1.85-11.43-5.55-11.43
				s-5.55,3.81-5.55,11.43C256.79,56.27,258.64,59.94,262.34,59.94z M262.34,52c-0.92,0-1.66-0.28-2.23-0.85
				c-0.57-0.57-0.85-1.31-0.85-2.23c0-0.93,0.28-1.68,0.85-2.24c0.57-0.56,1.31-0.84,2.23-0.84c0.93,0,1.68,0.28,2.24,0.84
				c0.56,0.56,0.84,1.31,0.84,2.24c0,0.92-0.28,1.66-0.84,2.23C264.02,51.72,263.27,52,262.34,52z"/>
			<path class="st0" d="M287.01,63.72c-6.63,0-9.95-4.93-9.95-14.8c0-10.14,3.32-15.21,9.95-15.21s9.95,5.07,9.95,15.21
				C296.96,58.79,293.64,63.72,287.01,63.72z M287.01,59.94c3.7,0,5.55-3.67,5.55-11.02c0-7.62-1.85-11.43-5.55-11.43
				s-5.55,3.81-5.55,11.43C281.46,56.27,283.31,59.94,287.01,59.94z M287.01,52c-0.92,0-1.66-0.28-2.23-0.85
				c-0.57-0.57-0.85-1.31-0.85-2.23c0-0.93,0.28-1.68,0.85-2.24c0.57-0.56,1.31-0.84,2.23-0.84c0.93,0,1.68,0.28,2.24,0.84
				c0.56,0.56,0.84,1.31,0.84,2.24c0,0.92-0.28,1.66-0.84,2.23C288.69,51.72,287.94,52,287.01,52z"/>
			<path class="st0" d="M302.84,63.31V59.4h7.81v3.91H302.84z M303.25,40.74v-4.15l6.99-2.47v4.23L303.25,40.74z M310.24,63.31
				V34.12h4.11v29.19H310.24z M313.94,63.31V59.4h7.03v3.91H313.94z"/>
			<path class="st0" d="M327.51,63.31V59.4h7.81v3.91H327.51z M327.92,40.74v-4.15l6.99-2.47v4.23L327.92,40.74z M334.91,63.31
				V34.12h4.11v29.19H334.91z M338.61,63.31V59.4h7.03v3.91H338.61z"/>
			<path class="st0" d="M89.64,114.25c-6.63,0-9.95-4.93-9.95-14.8c0-10.14,3.32-15.21,9.95-15.21s9.95,5.07,9.95,15.21
				C99.59,109.31,96.28,114.25,89.64,114.25z M89.64,110.46c3.7,0,5.55-3.67,5.55-11.02c0-7.62-1.85-11.43-5.55-11.43
				s-5.55,3.81-5.55,11.43C84.09,106.79,85.94,110.46,89.64,110.46z M89.64,102.53c-0.92,0-1.66-0.28-2.23-0.85
				c-0.57-0.57-0.85-1.31-0.85-2.23c0-0.93,0.28-1.68,0.85-2.24c0.57-0.56,1.31-0.84,2.23-0.84c0.93,0,1.68,0.28,2.24,0.84
				c0.56,0.56,0.84,1.31,0.84,2.24c0,0.92-0.28,1.66-0.84,2.23C91.32,102.24,90.57,102.53,89.64,102.53z"/>
			<path class="st0" d="M105.47,113.84v-3.91h7.81v3.91H105.47z M105.88,91.26v-4.15l6.99-2.47v4.23L105.88,91.26z M112.87,113.84
				V84.64h4.11v29.19H112.87z M116.57,113.84v-3.91h7.03v3.91H116.57z"/>
			<path class="st0" d="M130.14,113.84v-3.91h7.81v3.91H130.14z M130.55,91.26v-4.15l6.99-2.47v4.23L130.55,91.26z M137.54,113.84
				V84.64h4.11v29.19H137.54z M141.25,113.84v-3.91h7.03v3.91H141.25z"/>
			<path class="st0" d="M154.81,113.84v-3.91h7.81v3.91H154.81z M155.23,91.26v-4.15l6.99-2.47v4.23L155.23,91.26z M162.22,113.84
				V84.64h4.11v29.19H162.22z M165.92,113.84v-3.91h7.03v3.91H165.92z"/>
			<path class="st0" d="M188.33,114.25c-6.63,0-9.95-4.93-9.95-14.8c0-10.14,3.32-15.21,9.95-15.21s9.95,5.07,9.95,15.21
				C198.28,109.31,194.96,114.25,188.33,114.25z M188.33,110.46c3.7,0,5.55-3.67,5.55-11.02c0-7.62-1.85-11.43-5.55-11.43
				s-5.55,3.81-5.55,11.43C182.77,106.79,184.62,110.46,188.33,110.46z M188.33,102.53c-0.92,0-1.66-0.28-2.23-0.85
				c-0.57-0.57-0.85-1.31-0.85-2.23c0-0.93,0.28-1.68,0.85-2.24c0.57-0.56,1.31-0.84,2.23-0.84c0.93,0,1.68,0.28,2.24,0.84
				c0.56,0.56,0.84,1.31,0.84,2.24c0,0.92-0.28,1.66-0.84,2.23C190,102.24,189.26,102.53,188.33,102.53z"/>
			<path class="st0" d="M213,114.25c-6.63,0-9.95-4.93-9.95-14.8c0-10.14,3.32-15.21,9.95-15.21s9.95,5.07,9.95,15.21
				C222.95,109.31,219.63,114.25,213,114.25z M213,110.46c3.7,0,5.55-3.67,5.55-11.02c0-7.62-1.85-11.43-5.55-11.43
				s-5.55,3.81-5.55,11.43C207.45,106.79,209.3,110.46,213,110.46z M213,102.53c-0.92,0-1.66-0.28-2.23-0.85
				c-0.57-0.57-0.85-1.31-0.85-2.23c0-0.93,0.28-1.68,0.85-2.24c0.57-0.56,1.31-0.84,2.23-0.84c0.93,0,1.68,0.28,2.24,0.84
				c0.56,0.56,0.84,1.31,0.84,2.24c0,0.92-0.28,1.66-0.84,2.23C214.67,102.24,213.93,102.53,213,102.53z"/>
			<path class="st0" d="M228.83,113.84v-3.91h7.81v3.91H228.83z M229.24,91.26v-4.15l6.99-2.47v4.23L229.24,91.26z M236.23,113.84
				V84.64h4.11v29.19H236.23z M239.93,113.84v-3.91h7.03v3.91H239.93z"/>
			<path class="st0" d="M262.34,114.25c-6.63,0-9.95-4.93-9.95-14.8c0-10.14,3.32-15.21,9.95-15.21s9.95,5.07,9.95,15.21
				C272.29,109.31,268.97,114.25,262.34,114.25z M262.34,110.46c3.7,0,5.55-3.67,5.55-11.02c0-7.62-1.85-11.43-5.55-11.43
				s-5.55,3.81-5.55,11.43C256.79,106.79,258.64,110.46,262.34,110.46z M262.34,102.53c-0.92,0-1.66-0.28-2.23-0.85
				c-0.57-0.57-0.85-1.31-0.85-2.23c0-0.93,0.28-1.68,0.85-2.24c0.57-0.56,1.31-0.84,2.23-0.84c0.93,0,1.68,0.28,2.24,0.84
				c0.56,0.56,0.84,1.31,0.84,2.24c0,0.92-0.28,1.66-0.84,2.23C264.02,102.24,263.27,102.53,262.34,102.53z"/>
			<path class="st0" d="M287.01,114.25c-6.63,0-9.95-4.93-9.95-14.8c0-10.14,3.32-15.21,9.95-15.21s9.95,5.07,9.95,15.21
				C296.96,109.31,293.64,114.25,287.01,114.25z M287.01,110.46c3.7,0,5.55-3.67,5.55-11.02c0-7.62-1.85-11.43-5.55-11.43
				s-5.55,3.81-5.55,11.43C281.46,106.79,283.31,110.46,287.01,110.46z M287.01,102.53c-0.92,0-1.66-0.28-2.23-0.85
				c-0.57-0.57-0.85-1.31-0.85-2.23c0-0.93,0.28-1.68,0.85-2.24c0.57-0.56,1.31-0.84,2.23-0.84c0.93,0,1.68,0.28,2.24,0.84
				c0.56,0.56,0.84,1.31,0.84,2.24c0,0.92-0.28,1.66-0.84,2.23C288.69,102.24,287.94,102.53,287.01,102.53z"/>
			<path class="st0" d="M302.84,113.84v-3.91h7.81v3.91H302.84z M303.25,91.26v-4.15l6.99-2.47v4.23L303.25,91.26z M310.24,113.84
				V84.64h4.11v29.19H310.24z M313.94,113.84v-3.91h7.03v3.91H313.94z"/>
			<path class="st0" d="M327.51,113.84v-3.91h7.81v3.91H327.51z M327.92,91.26v-4.15l6.99-2.47v4.23L327.92,91.26z M334.91,113.84
				V84.64h4.11v29.19H334.91z M338.61,113.84v-3.91h7.03v3.91H338.61z"/>
			<path class="st0" d="M352.18,113.84v-3.91h7.81v3.91H352.18z M352.59,91.26v-4.15l6.99-2.47v4.23L352.59,91.26z M359.58,113.84
				V84.64h4.11v29.19H359.58z M363.28,113.84v-3.91h7.03v3.91H363.28z"/>
			<path class="st0" d="M385.69,114.25c-6.63,0-9.95-4.93-9.95-14.8c0-10.14,3.32-15.21,9.95-15.21s9.95,5.07,9.95,15.21
				C395.64,109.31,392.33,114.25,385.69,114.25z M385.69,110.46c3.7,0,5.55-3.67,5.55-11.02c0-7.62-1.85-11.43-5.55-11.43
				s-5.55,3.81-5.55,11.43C380.14,106.79,381.99,110.46,385.69,110.46z M385.69,102.53c-0.92,0-1.66-0.28-2.23-0.85
				c-0.57-0.57-0.85-1.31-0.85-2.23c0-0.93,0.28-1.68,0.85-2.24c0.57-0.56,1.31-0.84,2.23-0.84c0.93,0,1.68,0.28,2.24,0.84
				c0.56,0.56,0.84,1.31,0.84,2.24c0,0.92-0.28,1.66-0.84,2.23C387.37,102.24,386.62,102.53,385.69,102.53z"/>
			<path class="st0" d="M401.52,113.84v-3.91h7.81v3.91H401.52z M401.93,91.26v-4.15l6.99-2.47v4.23L401.93,91.26z M408.92,113.84
				V84.64h4.11v29.19H408.92z M412.62,113.84v-3.91h7.03v3.91H412.62z"/>
			<path class="st0" d="M52.64,164.77c-6.63,0-9.95-4.93-9.95-14.8c0-10.14,3.32-15.21,9.95-15.21s9.95,5.07,9.95,15.21
				C62.59,159.84,59.27,164.77,52.64,164.77z M52.64,160.99c3.7,0,5.55-3.67,5.55-11.02c0-7.62-1.85-11.43-5.55-11.43
				s-5.55,3.81-5.55,11.43C47.08,157.32,48.93,160.99,52.64,160.99z M52.64,153.06c-0.92,0-1.66-0.28-2.23-0.85
				c-0.57-0.57-0.85-1.31-0.85-2.23c0-0.93,0.28-1.68,0.85-2.24c0.57-0.56,1.31-0.84,2.23-0.84c0.93,0,1.68,0.28,2.24,0.84
				c0.56,0.56,0.84,1.31,0.84,2.24c0,0.92-0.28,1.66-0.84,2.23C54.31,152.77,53.57,153.06,52.64,153.06z"/>
			<path class="st0" d="M68.47,164.36v-3.91h7.81v3.91H68.47z M68.88,141.79v-4.15l6.99-2.47v4.23L68.88,141.79z M75.87,164.36
				v-29.19h4.11v29.19H75.87z M79.57,164.36v-3.91h7.03v3.91H79.57z"/>
			<path class="st0" d="M101.98,164.77c-6.63,0-9.95-4.93-9.95-14.8c0-10.14,3.32-15.21,9.95-15.21s9.95,5.07,9.95,15.21
				C111.93,159.84,108.61,164.77,101.98,164.77z M101.98,160.99c3.7,0,5.55-3.67,5.55-11.02c0-7.62-1.85-11.43-5.55-11.43
				s-5.55,3.81-5.55,11.43C96.43,157.32,98.28,160.99,101.98,160.99z M101.98,153.06c-0.92,0-1.66-0.28-2.23-0.85
				c-0.57-0.57-0.85-1.31-0.85-2.23c0-0.93,0.28-1.68,0.85-2.24c0.57-0.56,1.31-0.84,2.23-0.84c0.93,0,1.68,0.28,2.24,0.84
				c0.56,0.56,0.84,1.31,0.84,2.24c0,0.92-0.28,1.66-0.84,2.23C103.66,152.77,102.91,153.06,101.98,153.06z"/>
			<path class="st0" d="M117.81,164.36v-3.91h7.81v3.91H117.81z M118.22,141.79v-4.15l6.99-2.47v4.23L118.22,141.79z M125.21,164.36
				v-29.19h4.11v29.19H125.21z M128.91,164.36v-3.91h7.03v3.91H128.91z"/>
			<path class="st0" d="M142.48,164.36v-3.91h7.81v3.91H142.48z M142.89,141.79v-4.15l6.99-2.47v4.23L142.89,141.79z M149.88,164.36
				v-29.19h4.11v29.19H149.88z M153.58,164.36v-3.91h7.03v3.91H153.58z"/>
			<path class="st0" d="M167.15,164.36v-3.91h7.81v3.91H167.15z M167.56,141.79v-4.15l6.99-2.47v4.23L167.56,141.79z M174.55,164.36
				v-29.19h4.11v29.19H174.55z M178.25,164.36v-3.91h7.03v3.91H178.25z"/>
			<path class="st0" d="M191.82,164.36v-3.91h7.81v3.91H191.82z M192.23,141.79v-4.15l6.99-2.47v4.23L192.23,141.79z M199.22,164.36
				v-29.19h4.11v29.19H199.22z M202.92,164.36v-3.91h7.03v3.91H202.92z"/>
			<path class="st0" d="M225.33,164.77c-6.63,0-9.95-4.93-9.95-14.8c0-10.14,3.32-15.21,9.95-15.21s9.95,5.07,9.95,15.21
				C235.28,159.84,231.97,164.77,225.33,164.77z M225.33,160.99c3.7,0,5.55-3.67,5.55-11.02c0-7.62-1.85-11.43-5.55-11.43
				s-5.55,3.81-5.55,11.43C219.78,157.32,221.63,160.99,225.33,160.99z M225.33,153.06c-0.92,0-1.66-0.28-2.23-0.85
				c-0.57-0.57-0.85-1.31-0.85-2.23c0-0.93,0.28-1.68,0.85-2.24c0.57-0.56,1.31-0.84,2.23-0.84c0.93,0,1.68,0.28,2.24,0.84
				c0.56,0.56,0.84,1.31,0.84,2.24c0,0.92-0.28,1.66-0.84,2.23C227.01,152.77,226.26,153.06,225.33,153.06z"/>
			<path class="st0" d="M250,164.77c-6.63,0-9.95-4.93-9.95-14.8c0-10.14,3.32-15.21,9.95-15.21s9.95,5.07,9.95,15.21
				C259.95,159.84,256.64,164.77,250,164.77z M250,160.99c3.7,0,5.55-3.67,5.55-11.02c0-7.62-1.85-11.43-5.55-11.43
				s-5.55,3.81-5.55,11.43C244.45,157.32,246.3,160.99,250,160.99z M250,153.06c-0.92,0-1.66-0.28-2.23-0.85
				c-0.57-0.57-0.85-1.31-0.85-2.23c0-0.93,0.28-1.68,0.85-2.24c0.57-0.56,1.31-0.84,2.23-0.84c0.93,0,1.68,0.28,2.24,0.84
				c0.56,0.56,0.84,1.31,0.84,2.24c0,0.92-0.28,1.66-0.84,2.23C251.68,152.77,250.93,153.06,250,153.06z"/>
			<path class="st0" d="M274.67,164.77c-6.63,0-9.95-4.93-9.95-14.8c0-10.14,3.32-15.21,9.95-15.21s9.95,5.07,9.95,15.21
				C284.62,159.84,281.31,164.77,274.67,164.77z M274.67,160.99c3.7,0,5.55-3.67,5.55-11.02c0-7.62-1.85-11.43-5.55-11.43
				s-5.55,3.81-5.55,11.43C269.12,157.32,270.97,160.99,274.67,160.99z M274.67,153.06c-0.92,0-1.66-0.28-2.23-0.85
				c-0.57-0.57-0.85-1.31-0.85-2.23c0-0.93,0.28-1.68,0.85-2.24c0.57-0.56,1.31-0.84,2.23-0.84c0.93,0,1.68,0.28,2.24,0.84
				c0.56,0.56,0.84,1.31,0.84,2.24c0,0.92-0.28,1.66-0.84,2.23C276.35,152.77,275.61,153.06,274.67,153.06z"/>
			<path class="st0" d="M299.34,164.77c-6.63,0-9.95-4.93-9.95-14.8c0-10.14,3.32-15.21,9.95-15.21s9.95,5.07,9.95,15.21
				C309.29,159.84,305.98,164.77,299.34,164.77z M299.34,160.99c3.7,0,5.55-3.67,5.55-11.02c0-7.62-1.85-11.43-5.55-11.43
				s-5.55,3.81-5.55,11.43C293.79,157.32,295.64,160.99,299.34,160.99z M299.34,153.06c-0.92,0-1.66-0.28-2.23-0.85
				c-0.57-0.57-0.85-1.31-0.85-2.23c0-0.93,0.28-1.68,0.85-2.24c0.57-0.56,1.31-0.84,2.23-0.84c0.93,0,1.68,0.28,2.24,0.84
				c0.56,0.56,0.84,1.31,0.84,2.24c0,0.92-0.28,1.66-0.84,2.23C301.02,152.77,300.28,153.06,299.34,153.06z"/>
			<path class="st0" d="M324.02,164.77c-6.63,0-9.95-4.93-9.95-14.8c0-10.14,3.32-15.21,9.95-15.21s9.95,5.07,9.95,15.21
				C333.97,159.84,330.65,164.77,324.02,164.77z M324.02,160.99c3.7,0,5.55-3.67,5.55-11.02c0-7.62-1.85-11.43-5.55-11.43
				s-5.55,3.81-5.55,11.43C318.46,157.32,320.31,160.99,324.02,160.99z M324.02,153.06c-0.92,0-1.66-0.28-2.23-0.85
				c-0.57-0.57-0.85-1.31-0.85-2.23c0-0.93,0.28-1.68,0.85-2.24c0.57-0.56,1.31-0.84,2.23-0.84c0.93,0,1.68,0.28,2.24,0.84
				c0.56,0.56,0.84,1.31,0.84,2.24c0,0.92-0.28,1.66-0.84,2.23C325.69,152.77,324.95,153.06,324.02,153.06z"/>
			<path class="st0" d="M339.85,164.36v-3.91h7.81v3.91H339.85z M340.26,141.79v-4.15l6.99-2.47v4.23L340.26,141.79z M347.25,164.36
				v-29.19h4.11v29.19H347.25z M350.95,164.36v-3.91h7.03v3.91H350.95z"/>
			<path class="st0" d="M373.36,164.77c-6.63,0-9.95-4.93-9.95-14.8c0-10.14,3.32-15.21,9.95-15.21s9.95,5.07,9.95,15.21
				C383.31,159.84,379.99,164.77,373.36,164.77z M373.36,160.99c3.7,0,5.55-3.67,5.55-11.02c0-7.62-1.85-11.43-5.55-11.43
				s-5.55,3.81-5.55,11.43C367.81,157.32,369.66,160.99,373.36,160.99z M373.36,153.06c-0.92,0-1.66-0.28-2.23-0.85
				c-0.57-0.57-0.85-1.31-0.85-2.23c0-0.93,0.28-1.68,0.85-2.24c0.57-0.56,1.31-0.84,2.23-0.84c0.93,0,1.68,0.28,2.24,0.84
				c0.56,0.56,0.84,1.31,0.84,2.24c0,0.92-0.28,1.66-0.84,2.23C375.04,152.77,374.29,153.06,373.36,153.06z"/>
			<path class="st0" d="M389.19,164.36v-3.91H397v3.91H389.19z M389.6,141.79v-4.15l6.99-2.47v4.23L389.6,141.79z M396.59,164.36
				v-29.19h4.11v29.19H396.59z M400.29,164.36v-3.91h7.03v3.91H400.29z"/>
			<path class="st0" d="M413.86,164.36v-3.91h7.81v3.91H413.86z M414.27,141.79v-4.15l6.99-2.47v4.23L414.27,141.79z M421.26,164.36
				v-29.19h4.11v29.19H421.26z M424.96,164.36v-3.91h7.03v3.91H424.96z"/>
			<path class="st0" d="M438.53,164.36v-3.91h7.81v3.91H438.53z M438.94,141.79v-4.15l6.99-2.47v4.23L438.94,141.79z M445.93,164.36
				v-29.19h4.11v29.19H445.93z M449.63,164.36v-3.91h7.03v3.91H449.63z"/>
			<path class="st0" d="M40.3,215.3c-6.63,0-9.95-4.93-9.95-14.8c0-10.14,3.32-15.21,9.95-15.21s9.95,5.07,9.95,15.21
				C50.25,210.37,46.93,215.3,40.3,215.3z M40.3,211.52c3.7,0,5.55-3.67,5.55-11.02c0-7.62-1.85-11.43-5.55-11.43
				s-5.55,3.81-5.55,11.43C34.75,207.84,36.6,211.52,40.3,211.52z M40.3,203.58c-0.92,0-1.66-0.28-2.23-0.85
				c-0.57-0.57-0.85-1.31-0.85-2.23c0-0.93,0.28-1.68,0.85-2.24c0.57-0.56,1.31-0.84,2.23-0.84c0.93,0,1.68,0.28,2.24,0.84
				c0.56,0.56,0.84,1.31,0.84,2.24c0,0.92-0.28,1.66-0.84,2.23C41.98,203.3,41.23,203.58,40.3,203.58z"/>
			<path class="st0" d="M64.97,215.3c-6.63,0-9.95-4.93-9.95-14.8c0-10.14,3.32-15.21,9.95-15.21s9.95,5.07,9.95,15.21
				C74.92,210.37,71.6,215.3,64.97,215.3z M64.97,211.52c3.7,0,5.55-3.67,5.55-11.02c0-7.62-1.85-11.43-5.55-11.43
				s-5.55,3.81-5.55,11.43C59.42,207.84,61.27,211.52,64.97,211.52z M64.97,203.58c-0.92,0-1.66-0.28-2.23-0.85
				c-0.57-0.57-0.85-1.31-0.85-2.23c0-0.93,0.28-1.68,0.85-2.24c0.57-0.56,1.31-0.84,2.23-0.84c0.93,0,1.68,0.28,2.24,0.84
				c0.56,0.56,0.84,1.31,0.84,2.24c0,0.92-0.28,1.66-0.84,2.23C66.65,203.3,65.9,203.58,64.97,203.58z"/>
			<path class="st0" d="M80.8,214.89v-3.91h7.81v3.91H80.8z M81.21,192.31v-4.15l6.99-2.47v4.23L81.21,192.31z M88.2,214.89V185.7
				h4.11v29.19H88.2z M91.9,214.89v-3.91h7.03v3.91H91.9z"/>
			<path class="st0" d="M105.47,214.89v-3.91h7.81v3.91H105.47z M105.88,192.31v-4.15l6.99-2.47v4.23L105.88,192.31z M112.87,214.89
				V185.7h4.11v29.19H112.87z M116.57,214.89v-3.91h7.03v3.91H116.57z"/>
			<path class="st0" d="M138.98,215.3c-6.63,0-9.95-4.93-9.95-14.8c0-10.14,3.32-15.21,9.95-15.21s9.95,5.07,9.95,15.21
				C148.93,210.37,145.62,215.3,138.98,215.3z M138.98,211.52c3.7,0,5.55-3.67,5.55-11.02c0-7.62-1.85-11.43-5.55-11.43
				s-5.55,3.81-5.55,11.43C133.43,207.84,135.28,211.52,138.98,211.52z M138.98,203.58c-0.92,0-1.66-0.28-2.23-0.85
				c-0.57-0.57-0.85-1.31-0.85-2.23c0-0.93,0.28-1.68,0.85-2.24c0.57-0.56,1.31-0.84,2.23-0.84c0.93,0,1.68,0.28,2.24,0.84
				c0.56,0.56,0.84,1.31,0.84,2.24c0,0.92-0.28,1.66-0.84,2.23C140.66,203.3,139.92,203.58,138.98,203.58z"/>
			<path class="st0" d="M154.81,214.89v-3.91h7.81v3.91H154.81z M155.22,192.31v-4.15l6.99-2.47v4.23L155.22,192.31z M162.21,214.89
				V185.7h4.11v29.19H162.21z M165.92,214.89v-3.91h7.03v3.91H165.92z"/>
			<path class="st0" d="M179.48,214.89v-3.91h7.81v3.91H179.48z M179.9,192.31v-4.15l6.99-2.47v4.23L179.9,192.31z M186.89,214.89
				V185.7H191v29.19H186.89z M190.59,214.89v-3.91h7.03v3.91H190.59z"/>
			<path class="st0" d="M213,215.3c-6.63,0-9.95-4.93-9.95-14.8c0-10.14,3.32-15.21,9.95-15.21s9.95,5.07,9.95,15.21
				C222.95,210.37,219.63,215.3,213,215.3z M213,211.52c3.7,0,5.55-3.67,5.55-11.02c0-7.62-1.85-11.43-5.55-11.43
				s-5.55,3.81-5.55,11.43C207.44,207.84,209.29,211.52,213,211.52z M213,203.58c-0.92,0-1.66-0.28-2.23-0.85
				c-0.57-0.57-0.85-1.31-0.85-2.23c0-0.93,0.28-1.68,0.85-2.24c0.57-0.56,1.31-0.84,2.23-0.84c0.93,0,1.68,0.28,2.24,0.84
				c0.56,0.56,0.84,1.31,0.84,2.24c0,0.92-0.28,1.66-0.84,2.23C214.67,203.3,213.93,203.58,213,203.58z"/>
			<path class="st0" d="M237.67,215.3c-6.63,0-9.95-4.93-9.95-14.8c0-10.14,3.32-15.21,9.95-15.21s9.95,5.07,9.95,15.21
				C247.62,210.37,244.3,215.3,237.67,215.3z M237.67,211.52c3.7,0,5.55-3.67,5.55-11.02c0-7.62-1.85-11.43-5.55-11.43
				s-5.55,3.81-5.55,11.43C232.12,207.84,233.97,211.52,237.67,211.52z M237.67,203.58c-0.92,0-1.66-0.28-2.23-0.85
				c-0.57-0.57-0.85-1.31-0.85-2.23c0-0.93,0.28-1.68,0.85-2.24c0.57-0.56,1.31-0.84,2.23-0.84c0.93,0,1.68,0.28,2.24,0.84
				c0.56,0.56,0.84,1.31,0.84,2.24c0,0.92-0.28,1.66-0.84,2.23C239.35,203.3,238.6,203.58,237.67,203.58z"/>
			<path class="st0" d="M262.34,215.3c-6.63,0-9.95-4.93-9.95-14.8c0-10.14,3.32-15.21,9.95-15.21s9.95,5.07,9.95,15.21
				C272.29,210.37,268.97,215.3,262.34,215.3z M262.34,211.52c3.7,0,5.55-3.67,5.55-11.02c0-7.62-1.85-11.43-5.55-11.43
				s-5.55,3.81-5.55,11.43C256.79,207.84,258.64,211.52,262.34,211.52z M262.34,203.58c-0.92,0-1.66-0.28-2.23-0.85
				c-0.57-0.57-0.85-1.31-0.85-2.23c0-0.93,0.28-1.68,0.85-2.24c0.57-0.56,1.31-0.84,2.23-0.84c0.93,0,1.68,0.28,2.24,0.84
				c0.56,0.56,0.84,1.31,0.84,2.24c0,0.92-0.28,1.66-0.84,2.23C264.02,203.3,263.27,203.58,262.34,203.58z"/>
			<path class="st0" d="M278.17,214.89v-3.91h7.81v3.91H278.17z M278.58,192.31v-4.15l6.99-2.47v4.23L278.58,192.31z M285.57,214.89
				V185.7h4.11v29.19H285.57z M289.27,214.89v-3.91h7.03v3.91H289.27z"/>
			<path class="st0" d="M302.84,214.89v-3.91h7.81v3.91H302.84z M303.25,192.31v-4.15l6.99-2.47v4.23L303.25,192.31z M310.24,214.89
				V185.7h4.11v29.19H310.24z M313.94,214.89v-3.91h7.03v3.91H313.94z"/>
			<path class="st0" d="M336.35,215.3c-6.63,0-9.95-4.93-9.95-14.8c0-10.14,3.32-15.21,9.95-15.21s9.95,5.07,9.95,15.21
				C346.3,210.37,342.98,215.3,336.35,215.3z M336.35,211.52c3.7,0,5.55-3.67,5.55-11.02c0-7.62-1.85-11.43-5.55-11.43
				s-5.55,3.81-5.55,11.43C330.8,207.84,332.65,211.52,336.35,211.52z M336.35,203.58c-0.92,0-1.66-0.28-2.23-0.85
				c-0.57-0.57-0.85-1.31-0.85-2.23c0-0.93,0.28-1.68,0.85-2.24c0.57-0.56,1.31-0.84,2.23-0.84c0.93,0,1.68,0.28,2.24,0.84
				c0.56,0.56,0.84,1.31,0.84,2.24c0,0.92-0.28,1.66-0.84,2.23C338.03,203.3,337.28,203.58,336.35,203.58z"/>
			<path class="st0" d="M361.02,215.3c-6.63,0-9.95-4.93-9.95-14.8c0-10.14,3.32-15.21,9.95-15.21s9.95,5.07,9.95,15.21
				C370.97,210.37,367.65,215.3,361.02,215.3z M361.02,211.52c3.7,0,5.55-3.67,5.55-11.02c0-7.62-1.85-11.43-5.55-11.43
				s-5.55,3.81-5.55,11.43C355.47,207.84,357.32,211.52,361.02,211.52z M361.02,203.58c-0.92,0-1.66-0.28-2.23-0.85
				c-0.57-0.57-0.85-1.31-0.85-2.23c0-0.93,0.28-1.68,0.85-2.24c0.57-0.56,1.31-0.84,2.23-0.84c0.93,0,1.68,0.28,2.24,0.84
				c0.56,0.56,0.84,1.31,0.84,2.24c0,0.92-0.28,1.66-0.84,2.23C362.7,203.3,361.95,203.58,361.02,203.58z"/>
			<path class="st0" d="M385.69,215.3c-6.63,0-9.95-4.93-9.95-14.8c0-10.14,3.32-15.21,9.95-15.21s9.95,5.07,9.95,15.21
				C395.64,210.37,392.33,215.3,385.69,215.3z M385.69,211.52c3.7,0,5.55-3.67,5.55-11.02c0-7.62-1.85-11.43-5.55-11.43
				s-5.55,3.81-5.55,11.43C380.14,207.84,381.99,211.52,385.69,211.52z M385.69,203.58c-0.92,0-1.66-0.28-2.23-0.85
				c-0.57-0.57-0.85-1.31-0.85-2.23c0-0.93,0.28-1.68,0.85-2.24c0.57-0.56,1.31-0.84,2.23-0.84c0.93,0,1.68,0.28,2.24,0.84
				c0.56,0.56,0.84,1.31,0.84,2.24c0,0.92-0.28,1.66-0.84,2.23C387.37,203.3,386.62,203.58,385.69,203.58z"/>
			<path class="st0" d="M410.36,215.3c-6.63,0-9.95-4.93-9.95-14.8c0-10.14,3.32-15.21,9.95-15.21s9.95,5.07,9.95,15.21
				C420.31,210.37,417,215.3,410.36,215.3z M410.36,211.52c3.7,0,5.55-3.67,5.55-11.02c0-7.62-1.85-11.43-5.55-11.43
				s-5.55,3.81-5.55,11.43C404.81,207.84,406.66,211.52,410.36,211.52z M410.36,203.58c-0.92,0-1.66-0.28-2.23-0.85
				c-0.57-0.57-0.85-1.31-0.85-2.23c0-0.93,0.28-1.68,0.85-2.24c0.57-0.56,1.31-0.84,2.23-0.84c0.93,0,1.68,0.28,2.24,0.84
				c0.56,0.56,0.84,1.31,0.84,2.24c0,0.92-0.28,1.66-0.84,2.23C412.04,203.3,411.29,203.58,410.36,203.58z"/>
			<path class="st0" d="M426.19,214.89v-3.91h7.81v3.91H426.19z M426.6,192.31v-4.15l6.99-2.47v4.23L426.6,192.31z M433.59,214.89
				V185.7h4.11v29.19H433.59z M437.3,214.89v-3.91h7.03v3.91H437.3z"/>
			<path class="st0" d="M459.7,215.3c-6.63,0-9.95-4.93-9.95-14.8c0-10.14,3.32-15.21,9.95-15.21s9.95,5.07,9.95,15.21
				C469.66,210.37,466.34,215.3,459.7,215.3z M459.7,211.52c3.7,0,5.55-3.67,5.55-11.02c0-7.62-1.85-11.43-5.55-11.43
				s-5.55,3.81-5.55,11.43C454.15,207.84,456,211.52,459.7,211.52z M459.7,203.58c-0.92,0-1.66-0.28-2.23-0.85
				c-0.57-0.57-0.85-1.31-0.85-2.23c0-0.93,0.28-1.68,0.85-2.24c0.57-0.56,1.31-0.84,2.23-0.84c0.93,0,1.68,0.28,2.24,0.84
				c0.56,0.56,0.84,1.31,0.84,2.24c0,0.92-0.28,1.66-0.84,2.23C461.38,203.3,460.64,203.58,459.7,203.58z"/>
			<path class="st0" d="M19.12,265.42v-3.91h7.81v3.91H19.12z M19.53,242.84v-4.15l6.99-2.47v4.23L19.53,242.84z M26.52,265.42
				v-29.19h4.11v29.19H26.52z M30.23,265.42v-3.91h7.03v3.91H30.23z"/>
			<path class="st0" d="M43.79,265.42v-3.91h7.81v3.91H43.79z M44.21,242.84v-4.15l6.99-2.47v4.23L44.21,242.84z M51.2,265.42
				v-29.19h4.11v29.19H51.2z M54.9,265.42v-3.91h7.03v3.91H54.9z"/>
			<path class="st0" d="M77.31,265.83c-6.63,0-9.95-4.93-9.95-14.8c0-10.14,3.32-15.21,9.95-15.21s9.95,5.07,9.95,15.21
				C87.26,260.89,83.94,265.83,77.31,265.83z M77.31,262.04c3.7,0,5.55-3.67,5.55-11.02c0-7.62-1.85-11.43-5.55-11.43
				s-5.55,3.81-5.55,11.43C71.75,258.37,73.6,262.04,77.31,262.04z M77.31,254.11c-0.92,0-1.66-0.28-2.23-0.85
				c-0.57-0.57-0.85-1.31-0.85-2.23c0-0.93,0.28-1.68,0.85-2.24c0.57-0.56,1.31-0.84,2.23-0.84c0.93,0,1.68,0.28,2.24,0.84
				c0.56,0.56,0.84,1.31,0.84,2.24c0,0.92-0.28,1.66-0.84,2.23C78.98,253.82,78.24,254.11,77.31,254.11z"/>
			<path class="st0" d="M93.14,265.42v-3.91h7.81v3.91H93.14z M93.55,242.84v-4.15l6.99-2.47v4.23L93.55,242.84z M100.54,265.42
				v-29.19h4.11v29.19H100.54z M104.24,265.42v-3.91h7.03v3.91H104.24z"/>
			<path class="st0" d="M117.81,265.42v-3.91h7.81v3.91H117.81z M118.22,242.84v-4.15l6.99-2.47v4.23L118.22,242.84z M125.21,265.42
				v-29.19h4.11v29.19H125.21z M128.91,265.42v-3.91h7.03v3.91H128.91z"/>
			<path class="st0" d="M142.48,265.42v-3.91h7.81v3.91H142.48z M142.89,242.84v-4.15l6.99-2.47v4.23L142.89,242.84z M149.88,265.42
				v-29.19h4.11v29.19H149.88z M153.58,265.42v-3.91h7.03v3.91H153.58z"/>
			<path class="st0" d="M175.99,265.83c-6.63,0-9.95-4.93-9.95-14.8c0-10.14,3.32-15.21,9.95-15.21s9.95,5.07,9.95,15.21
				C185.94,260.89,182.62,265.83,175.99,265.83z M175.99,262.04c3.7,0,5.55-3.67,5.55-11.02c0-7.62-1.85-11.43-5.55-11.43
				s-5.55,3.81-5.55,11.43C170.44,258.37,172.29,262.04,175.99,262.04z M175.99,254.11c-0.92,0-1.66-0.28-2.23-0.85
				c-0.57-0.57-0.85-1.31-0.85-2.23c0-0.93,0.28-1.68,0.85-2.24c0.57-0.56,1.31-0.84,2.23-0.84c0.93,0,1.68,0.28,2.24,0.84
				c0.56,0.56,0.84,1.31,0.84,2.24c0,0.92-0.28,1.66-0.84,2.23C177.67,253.82,176.92,254.11,175.99,254.11z"/>
			<path class="st0" d="M200.66,265.83c-6.63,0-9.95-4.93-9.95-14.8c0-10.14,3.32-15.21,9.95-15.21s9.95,5.07,9.95,15.21
				C210.61,260.89,207.29,265.83,200.66,265.83z M200.66,262.04c3.7,0,5.55-3.67,5.55-11.02c0-7.62-1.85-11.43-5.55-11.43
				s-5.55,3.81-5.55,11.43C195.11,258.37,196.96,262.04,200.66,262.04z M200.66,254.11c-0.92,0-1.66-0.28-2.23-0.85
				c-0.57-0.57-0.85-1.31-0.85-2.23c0-0.93,0.28-1.68,0.85-2.24c0.57-0.56,1.31-0.84,2.23-0.84c0.93,0,1.68,0.28,2.24,0.84
				c0.56,0.56,0.84,1.31,0.84,2.24c0,0.92-0.28,1.66-0.84,2.23C202.34,253.82,201.59,254.11,200.66,254.11z"/>
			<path class="st0" d="M216.49,265.42v-3.91h7.81v3.91H216.49z M216.9,242.84v-4.15l6.99-2.47v4.23L216.9,242.84z M223.89,265.42
				v-29.19H228v29.19H223.89z M227.59,265.42v-3.91h7.03v3.91H227.59z"/>
			<path class="st0" d="M241.16,265.42v-3.91h7.81v3.91H241.16z M241.57,242.84v-4.15l6.99-2.47v4.23L241.57,242.84z M248.56,265.42
				v-29.19h4.11v29.19H248.56z M252.26,265.42v-3.91h7.03v3.91H252.26z"/>
			<path class="st0" d="M274.67,265.83c-6.63,0-9.95-4.93-9.95-14.8c0-10.14,3.32-15.21,9.95-15.21s9.95,5.07,9.95,15.21
				C284.62,260.89,281.31,265.83,274.67,265.83z M274.67,262.04c3.7,0,5.55-3.67,5.55-11.02c0-7.62-1.85-11.43-5.55-11.43
				s-5.55,3.81-5.55,11.43C269.12,258.37,270.97,262.04,274.67,262.04z M274.67,254.11c-0.92,0-1.66-0.28-2.23-0.85
				c-0.57-0.57-0.85-1.31-0.85-2.23c0-0.93,0.28-1.68,0.85-2.24c0.57-0.56,1.31-0.84,2.23-0.84c0.93,0,1.68,0.28,2.24,0.84
				c0.56,0.56,0.84,1.31,0.84,2.24c0,0.92-0.28,1.66-0.84,2.23C276.35,253.82,275.6,254.11,274.67,254.11z"/>
			<path class="st0" d="M299.34,265.83c-6.63,0-9.95-4.93-9.95-14.8c0-10.14,3.32-15.21,9.95-15.21s9.95,5.07,9.95,15.21
				C309.29,260.89,305.98,265.83,299.34,265.83z M299.34,262.04c3.7,0,5.55-3.67,5.55-11.02c0-7.62-1.85-11.43-5.55-11.43
				s-5.55,3.81-5.55,11.43C293.79,258.37,295.64,262.04,299.34,262.04z M299.34,254.11c-0.92,0-1.66-0.28-2.23-0.85
				c-0.57-0.57-0.85-1.31-0.85-2.23c0-0.93,0.28-1.68,0.85-2.24c0.57-0.56,1.31-0.84,2.23-0.84c0.93,0,1.68,0.28,2.24,0.84
				c0.56,0.56,0.84,1.31,0.84,2.24c0,0.92-0.28,1.66-0.84,2.23C301.02,253.82,300.28,254.11,299.34,254.11z"/>
			<path class="st0" d="M315.17,265.42v-3.91h7.81v3.91H315.17z M315.59,242.84v-4.15l6.99-2.47v4.23L315.59,242.84z M322.58,265.42
				v-29.19h4.11v29.19H322.58z M326.28,265.42v-3.91h7.03v3.91H326.28z"/>
			<path class="st0" d="M348.69,265.83c-6.63,0-9.95-4.93-9.95-14.8c0-10.14,3.32-15.21,9.95-15.21s9.95,5.07,9.95,15.21
				C358.64,260.89,355.32,265.83,348.69,265.83z M348.69,262.04c3.7,0,5.55-3.67,5.55-11.02c0-7.62-1.85-11.43-5.55-11.43
				s-5.55,3.81-5.55,11.43C343.13,258.37,344.98,262.04,348.69,262.04z M348.69,254.11c-0.92,0-1.66-0.28-2.23-0.85
				c-0.57-0.57-0.85-1.31-0.85-2.23c0-0.93,0.28-1.68,0.85-2.24c0.57-0.56,1.31-0.84,2.23-0.84c0.93,0,1.68,0.28,2.24,0.84
				c0.56,0.56,0.84,1.31,0.84,2.24c0,0.92-0.28,1.66-0.84,2.23C350.36,253.82,349.62,254.11,348.69,254.11z"/>
			<path class="st0" d="M373.36,265.83c-6.63,0-9.95-4.93-9.95-14.8c0-10.14,3.32-15.21,9.95-15.21s9.95,5.07,9.95,15.21
				C383.31,260.89,379.99,265.83,373.36,265.83z M373.36,262.04c3.7,0,5.55-3.67,5.55-11.02c0-7.62-1.85-11.43-5.55-11.43
				s-5.55,3.81-5.55,11.43C367.81,258.37,369.66,262.04,373.36,262.04z M373.36,254.11c-0.92,0-1.66-0.28-2.23-0.85
				c-0.57-0.57-0.85-1.31-0.85-2.23c0-0.93,0.28-1.68,0.85-2.24c0.57-0.56,1.31-0.84,2.23-0.84c0.93,0,1.68,0.28,2.24,0.84
				c0.56,0.56,0.84,1.31,0.84,2.24c0,0.92-0.28,1.66-0.84,2.23C375.04,253.82,374.29,254.11,373.36,254.11z"/>
			<path class="st0" d="M398.03,265.83c-6.63,0-9.95-4.93-9.95-14.8c0-10.14,3.32-15.21,9.95-15.21s9.95,5.07,9.95,15.21
				C407.98,260.89,404.66,265.83,398.03,265.83z M398.03,262.04c3.7,0,5.55-3.67,5.55-11.02c0-7.62-1.85-11.43-5.55-11.43
				s-5.55,3.81-5.55,11.43C392.48,258.37,394.33,262.04,398.03,262.04z M398.03,254.11c-0.92,0-1.66-0.28-2.23-0.85
				c-0.57-0.57-0.85-1.31-0.85-2.23c0-0.93,0.28-1.68,0.85-2.24c0.57-0.56,1.31-0.84,2.23-0.84c0.93,0,1.68,0.28,2.24,0.84
				c0.56,0.56,0.84,1.31,0.84,2.24c0,0.92-0.28,1.66-0.84,2.23C399.71,253.82,398.96,254.11,398.03,254.11z"/>
			<path class="st0" d="M422.7,265.83c-6.63,0-9.95-4.93-9.95-14.8c0-10.14,3.32-15.21,9.95-15.21s9.95,5.07,9.95,15.21
				C432.65,260.89,429.33,265.83,422.7,265.83z M422.7,262.04c3.7,0,5.55-3.67,5.55-11.02c0-7.62-1.85-11.43-5.55-11.43
				s-5.55,3.81-5.55,11.43C417.15,258.37,419,262.04,422.7,262.04z M422.7,254.11c-0.92,0-1.66-0.28-2.23-0.85
				c-0.57-0.57-0.85-1.31-0.85-2.23c0-0.93,0.28-1.68,0.85-2.24c0.57-0.56,1.31-0.84,2.23-0.84c0.93,0,1.68,0.28,2.24,0.84
				c0.56,0.56,0.84,1.31,0.84,2.24c0,0.92-0.28,1.66-0.84,2.23C424.38,253.82,423.63,254.11,422.7,254.11z"/>
			<path class="st0" d="M438.53,265.42v-3.91h7.81v3.91H438.53z M438.94,242.84v-4.15l6.99-2.47v4.23L438.94,242.84z M445.93,265.42
				v-29.19h4.11v29.19H445.93z M449.63,265.42v-3.91h7.03v3.91H449.63z"/>
			<path class="st0" d="M472.04,265.83c-6.63,0-9.95-4.93-9.95-14.8c0-10.14,3.32-15.21,9.95-15.21s9.95,5.07,9.95,15.21
				C481.99,260.89,478.67,265.83,472.04,265.83z M472.04,262.04c3.7,0,5.55-3.67,5.55-11.02c0-7.62-1.85-11.43-5.55-11.43
				s-5.55,3.81-5.55,11.43C466.49,258.37,468.34,262.04,472.04,262.04z M472.04,254.11c-0.92,0-1.66-0.28-2.23-0.85
				c-0.57-0.57-0.85-1.31-0.85-2.23c0-0.93,0.28-1.68,0.85-2.24c0.57-0.56,1.31-0.84,2.23-0.84c0.93,0,1.68,0.28,2.24,0.84
				c0.56,0.56,0.84,1.31,0.84,2.24c0,0.92-0.28,1.66-0.84,2.23C473.72,253.82,472.97,254.11,472.04,254.11z"/>
			<path class="st0" d="M31.46,315.94v-3.91h7.81v3.91H31.46z M31.87,293.37v-4.15l6.99-2.47v4.23L31.87,293.37z M38.86,315.94
				v-29.19h4.11v29.19H38.86z M42.56,315.94v-3.91h7.03v3.91H42.56z"/>
			<path class="st0" d="M56.13,315.94v-3.91h7.81v3.91H56.13z M56.54,293.37v-4.15l6.99-2.47v4.23L56.54,293.37z M63.53,315.94
				v-29.19h4.11v29.19H63.53z M67.23,315.94v-3.91h7.03v3.91H67.23z"/>
			<path class="st0" d="M80.8,315.94v-3.91h7.81v3.91H80.8z M81.21,293.37v-4.15l6.99-2.47v4.23L81.21,293.37z M88.2,315.94v-29.19
				h4.11v29.19H88.2z M91.9,315.94v-3.91h7.03v3.91H91.9z"/>
			<path class="st0" d="M105.47,315.94v-3.91h7.81v3.91H105.47z M105.88,293.37v-4.15l6.99-2.47v4.23L105.88,293.37z M112.87,315.94
				v-29.19h4.11v29.19H112.87z M116.57,315.94v-3.91h7.03v3.91H116.57z"/>
			<path class="st0" d="M138.98,316.35c-6.63,0-9.95-4.93-9.95-14.8c0-10.14,3.32-15.21,9.95-15.21s9.95,5.07,9.95,15.21
				C148.93,311.42,145.62,316.35,138.98,316.35z M138.98,312.57c3.7,0,5.55-3.67,5.55-11.02c0-7.62-1.85-11.43-5.55-11.43
				s-5.55,3.81-5.55,11.43C133.43,308.9,135.28,312.57,138.98,312.57z M138.98,304.63c-0.92,0-1.66-0.28-2.23-0.85
				c-0.57-0.57-0.85-1.31-0.85-2.23c0-0.93,0.28-1.68,0.85-2.24c0.57-0.56,1.31-0.84,2.23-0.84c0.93,0,1.68,0.28,2.24,0.84
				c0.56,0.56,0.84,1.31,0.84,2.24c0,0.92-0.28,1.66-0.84,2.23C140.66,304.35,139.91,304.63,138.98,304.63z"/>
			<path class="st0" d="M163.65,316.35c-6.63,0-9.95-4.93-9.95-14.8c0-10.14,3.32-15.21,9.95-15.21s9.95,5.07,9.95,15.21
				C173.6,311.42,170.29,316.35,163.65,316.35z M163.65,312.57c3.7,0,5.55-3.67,5.55-11.02c0-7.62-1.85-11.43-5.55-11.43
				s-5.55,3.81-5.55,11.43C158.1,308.9,159.95,312.57,163.65,312.57z M163.65,304.63c-0.92,0-1.66-0.28-2.23-0.85
				c-0.57-0.57-0.85-1.31-0.85-2.23c0-0.93,0.28-1.68,0.85-2.24c0.57-0.56,1.31-0.84,2.23-0.84c0.93,0,1.68,0.28,2.24,0.84
				c0.56,0.56,0.84,1.31,0.84,2.24c0,0.92-0.28,1.66-0.84,2.23C165.33,304.35,164.58,304.63,163.65,304.63z"/>
			<path class="st0" d="M179.48,315.94v-3.91h7.81v3.91H179.48z M179.89,293.37v-4.15l6.99-2.47v4.23L179.89,293.37z M186.88,315.94
				v-29.19H191v29.19H186.88z M190.59,315.94v-3.91h7.03v3.91H190.59z"/>
			<path class="st0" d="M204.15,315.94v-3.91h7.81v3.91H204.15z M204.57,293.37v-4.15l6.99-2.47v4.23L204.57,293.37z M211.56,315.94
				v-29.19h4.11v29.19H211.56z M215.26,315.94v-3.91h7.03v3.91H215.26z"/>
			<path class="st0" d="M237.67,316.35c-6.63,0-9.95-4.93-9.95-14.8c0-10.14,3.32-15.21,9.95-15.21s9.95,5.07,9.95,15.21
				C247.62,311.42,244.3,316.35,237.67,316.35z M237.67,312.57c3.7,0,5.55-3.67,5.55-11.02c0-7.62-1.85-11.43-5.55-11.43
				s-5.55,3.81-5.55,11.43C232.11,308.9,233.96,312.57,237.67,312.57z M237.67,304.63c-0.92,0-1.66-0.28-2.23-0.85
				c-0.57-0.57-0.85-1.31-0.85-2.23c0-0.93,0.28-1.68,0.85-2.24c0.57-0.56,1.31-0.84,2.23-0.84c0.93,0,1.68,0.28,2.24,0.84
				c0.56,0.56,0.84,1.31,0.84,2.24c0,0.92-0.28,1.66-0.84,2.23C239.34,304.35,238.6,304.63,237.67,304.63z"/>
			<path class="st0" d="M262.34,316.35c-6.63,0-9.95-4.93-9.95-14.8c0-10.14,3.32-15.21,9.95-15.21s9.95,5.07,9.95,15.21
				C272.29,311.42,268.97,316.35,262.34,316.35z M262.34,312.57c3.7,0,5.55-3.67,5.55-11.02c0-7.62-1.85-11.43-5.55-11.43
				s-5.55,3.81-5.55,11.43C256.79,308.9,258.64,312.57,262.34,312.57z M262.34,304.63c-0.92,0-1.66-0.28-2.23-0.85
				c-0.57-0.57-0.85-1.31-0.85-2.23c0-0.93,0.28-1.68,0.85-2.24c0.57-0.56,1.31-0.84,2.23-0.84c0.93,0,1.68,0.28,2.24,0.84
				c0.56,0.56,0.84,1.31,0.84,2.24c0,0.92-0.28,1.66-0.84,2.23C264.02,304.35,263.27,304.63,262.34,304.63z"/>
			<path class="st0" d="M278.17,315.94v-3.91h7.81v3.91H278.17z M278.58,293.37v-4.15l6.99-2.47v4.23L278.58,293.37z M285.57,315.94
				v-29.19h4.11v29.19H285.57z M289.27,315.94v-3.91h7.03v3.91H289.27z"/>
			<path class="st0" d="M302.84,315.94v-3.91h7.81v3.91H302.84z M303.25,293.37v-4.15l6.99-2.47v4.23L303.25,293.37z M310.24,315.94
				v-29.19h4.11v29.19H310.24z M313.94,315.94v-3.91h7.03v3.91H313.94z"/>
			<path class="st0" d="M336.35,316.35c-6.63,0-9.95-4.93-9.95-14.8c0-10.14,3.32-15.21,9.95-15.21s9.95,5.07,9.95,15.21
				C346.3,311.42,342.98,316.35,336.35,316.35z M336.35,312.57c3.7,0,5.55-3.67,5.55-11.02c0-7.62-1.85-11.43-5.55-11.43
				s-5.55,3.81-5.55,11.43C330.8,308.9,332.65,312.57,336.35,312.57z M336.35,304.63c-0.92,0-1.66-0.28-2.23-0.85
				c-0.57-0.57-0.85-1.31-0.85-2.23c0-0.93,0.28-1.68,0.85-2.24c0.57-0.56,1.31-0.84,2.23-0.84c0.93,0,1.68,0.28,2.24,0.84
				c0.56,0.56,0.84,1.31,0.84,2.24c0,0.92-0.28,1.66-0.84,2.23C338.03,304.35,337.28,304.63,336.35,304.63z"/>
			<path class="st0" d="M352.18,315.94v-3.91h7.81v3.91H352.18z M352.59,293.37v-4.15l6.99-2.47v4.23L352.59,293.37z M359.58,315.94
				v-29.19h4.11v29.19H359.58z M363.28,315.94v-3.91h7.03v3.91H363.28z"/>
			<path class="st0" d="M385.69,316.35c-6.63,0-9.95-4.93-9.95-14.8c0-10.14,3.32-15.21,9.95-15.21s9.95,5.07,9.95,15.21
				C395.64,311.42,392.32,316.35,385.69,316.35z M385.69,312.57c3.7,0,5.55-3.67,5.55-11.02c0-7.62-1.85-11.43-5.55-11.43
				s-5.55,3.81-5.55,11.43C380.14,308.9,381.99,312.57,385.69,312.57z M385.69,304.63c-0.92,0-1.66-0.28-2.23-0.85
				c-0.57-0.57-0.85-1.31-0.85-2.23c0-0.93,0.28-1.68,0.85-2.24c0.57-0.56,1.31-0.84,2.23-0.84c0.93,0,1.68,0.28,2.24,0.84
				c0.56,0.56,0.84,1.31,0.84,2.24c0,0.92-0.28,1.66-0.84,2.23C387.37,304.35,386.62,304.63,385.69,304.63z"/>
			<path class="st0" d="M410.36,316.35c-6.63,0-9.95-4.93-9.95-14.8c0-10.14,3.32-15.21,9.95-15.21s9.95,5.07,9.95,15.21
				C420.31,311.42,417,316.35,410.36,316.35z M410.36,312.57c3.7,0,5.55-3.67,5.55-11.02c0-7.62-1.85-11.43-5.55-11.43
				s-5.55,3.81-5.55,11.43C404.81,308.9,406.66,312.57,410.36,312.57z M410.36,304.63c-0.92,0-1.66-0.28-2.23-0.85
				c-0.57-0.57-0.85-1.31-0.85-2.23c0-0.93,0.28-1.68,0.85-2.24c0.57-0.56,1.31-0.84,2.23-0.84c0.93,0,1.68,0.28,2.24,0.84
				c0.56,0.56,0.84,1.31,0.84,2.24c0,0.92-0.28,1.66-0.84,2.23C412.04,304.35,411.29,304.63,410.36,304.63z"/>
			<path class="st0" d="M426.19,315.94v-3.91H434v3.91H426.19z M426.6,293.37v-4.15l6.99-2.47v4.23L426.6,293.37z M433.59,315.94
				v-29.19h4.11v29.19H433.59z M437.29,315.94v-3.91h7.03v3.91H437.29z"/>
			<path class="st0" d="M459.7,316.35c-6.63,0-9.95-4.93-9.95-14.8c0-10.14,3.32-15.21,9.95-15.21s9.95,5.07,9.95,15.21
				C469.65,311.42,466.34,316.35,459.7,316.35z M459.7,312.57c3.7,0,5.55-3.67,5.55-11.02c0-7.62-1.85-11.43-5.55-11.43
				s-5.55,3.81-5.55,11.43C454.15,308.9,456,312.57,459.7,312.57z M459.7,304.63c-0.92,0-1.66-0.28-2.23-0.85
				c-0.57-0.57-0.85-1.31-0.85-2.23c0-0.93,0.28-1.68,0.85-2.24c0.57-0.56,1.31-0.84,2.23-0.84c0.93,0,1.68,0.28,2.24,0.84
				c0.56,0.56,0.84,1.31,0.84,2.24c0,0.92-0.28,1.66-0.84,2.23C461.38,304.35,460.64,304.63,459.7,304.63z"/>
			<path class="st0" d="M52.63,366.88c-6.63,0-9.95-4.93-9.95-14.8c0-10.14,3.32-15.21,9.95-15.21s9.95,5.07,9.95,15.21
				C62.58,361.95,59.27,366.88,52.63,366.88z M52.63,363.1c3.7,0,5.55-3.67,5.55-11.02c0-7.62-1.85-11.43-5.55-11.43
				s-5.55,3.81-5.55,11.43C47.08,359.42,48.93,363.1,52.63,363.1z M52.63,355.16c-0.92,0-1.66-0.28-2.23-0.85
				c-0.57-0.57-0.85-1.31-0.85-2.23c0-0.93,0.28-1.68,0.85-2.24c0.57-0.56,1.31-0.84,2.23-0.84c0.93,0,1.68,0.28,2.24,0.84
				c0.56,0.56,0.84,1.31,0.84,2.24c0,0.92-0.28,1.66-0.84,2.23C54.31,354.88,53.57,355.16,52.63,355.16z"/>
			<path class="st0" d="M77.3,366.88c-6.63,0-9.95-4.93-9.95-14.8c0-10.14,3.32-15.21,9.95-15.21s9.95,5.07,9.95,15.21
				C87.26,361.95,83.94,366.88,77.3,366.88z M77.3,363.1c3.7,0,5.55-3.67,5.55-11.02c0-7.62-1.85-11.43-5.55-11.43
				s-5.55,3.81-5.55,11.43C71.75,359.42,73.6,363.1,77.3,363.1z M77.3,355.16c-0.92,0-1.66-0.28-2.23-0.85
				c-0.57-0.57-0.85-1.31-0.85-2.23c0-0.93,0.28-1.68,0.85-2.24c0.57-0.56,1.31-0.84,2.23-0.84c0.93,0,1.68,0.28,2.24,0.84
				c0.56,0.56,0.84,1.31,0.84,2.24c0,0.92-0.28,1.66-0.84,2.23C78.98,354.88,78.24,355.16,77.3,355.16z"/>
			<path class="st0" d="M101.98,366.88c-6.63,0-9.95-4.93-9.95-14.8c0-10.14,3.32-15.21,9.95-15.21s9.95,5.07,9.95,15.21
				C111.93,361.95,108.61,366.88,101.98,366.88z M101.98,363.1c3.7,0,5.55-3.67,5.55-11.02c0-7.62-1.85-11.43-5.55-11.43
				s-5.55,3.81-5.55,11.43C96.42,359.42,98.27,363.1,101.98,363.1z M101.98,355.16c-0.92,0-1.66-0.28-2.23-0.85
				c-0.57-0.57-0.85-1.31-0.85-2.23c0-0.93,0.28-1.68,0.85-2.24c0.57-0.56,1.31-0.84,2.23-0.84c0.93,0,1.68,0.28,2.24,0.84
				c0.56,0.56,0.84,1.31,0.84,2.24c0,0.92-0.28,1.66-0.84,2.23C103.65,354.88,102.91,355.16,101.98,355.16z"/>
			<path class="st0" d="M117.81,366.47v-3.91h7.81v3.91H117.81z M118.22,343.89v-4.15l6.99-2.47v4.23L118.22,343.89z M125.21,366.47
				v-29.19h4.11v29.19H125.21z M128.91,366.47v-3.91h7.03v3.91H128.91z"/>
			<path class="st0" d="M151.32,366.88c-6.63,0-9.95-4.93-9.95-14.8c0-10.14,3.32-15.21,9.95-15.21s9.95,5.07,9.95,15.21
				C161.27,361.95,157.95,366.88,151.32,366.88z M151.32,363.1c3.7,0,5.55-3.67,5.55-11.02c0-7.62-1.85-11.43-5.55-11.43
				s-5.55,3.81-5.55,11.43C145.77,359.42,147.62,363.1,151.32,363.1z M151.32,355.16c-0.92,0-1.66-0.28-2.23-0.85
				c-0.57-0.57-0.85-1.31-0.85-2.23c0-0.93,0.28-1.68,0.85-2.24c0.57-0.56,1.31-0.84,2.23-0.84c0.93,0,1.68,0.28,2.24,0.84
				c0.56,0.56,0.84,1.31,0.84,2.24c0,0.92-0.28,1.66-0.84,2.23C153,354.88,152.25,355.16,151.32,355.16z"/>
			<path class="st0" d="M175.99,366.88c-6.63,0-9.95-4.93-9.95-14.8c0-10.14,3.32-15.21,9.95-15.21s9.95,5.07,9.95,15.21
				C185.94,361.95,182.62,366.88,175.99,366.88z M175.99,363.1c3.7,0,5.55-3.67,5.55-11.02c0-7.62-1.85-11.43-5.55-11.43
				s-5.55,3.81-5.55,11.43C170.44,359.42,172.29,363.1,175.99,363.1z M175.99,355.16c-0.92,0-1.66-0.28-2.23-0.85
				c-0.57-0.57-0.85-1.31-0.85-2.23c0-0.93,0.28-1.68,0.85-2.24c0.57-0.56,1.31-0.84,2.23-0.84c0.93,0,1.68,0.28,2.24,0.84
				c0.56,0.56,0.84,1.31,0.84,2.24c0,0.92-0.28,1.66-0.84,2.23C177.67,354.88,176.92,355.16,175.99,355.16z"/>
			<path class="st0" d="M191.82,366.47v-3.91h7.81v3.91H191.82z M192.23,343.89v-4.15l6.99-2.47v4.23L192.23,343.89z M199.22,366.47
				v-29.19h4.11v29.19H199.22z M202.92,366.47v-3.91h7.03v3.91H202.92z"/>
			<path class="st0" d="M216.49,366.47v-3.91h7.81v3.91H216.49z M216.9,343.89v-4.15l6.99-2.47v4.23L216.9,343.89z M223.89,366.47
				v-29.19H228v29.19H223.89z M227.59,366.47v-3.91h7.03v3.91H227.59z"/>
			<path class="st0" d="M250,366.88c-6.63,0-9.95-4.93-9.95-14.8c0-10.14,3.32-15.21,9.95-15.21s9.95,5.07,9.95,15.21
				C259.95,361.95,256.63,366.88,250,366.88z M250,363.1c3.7,0,5.55-3.67,5.55-11.02c0-7.62-1.85-11.43-5.55-11.43
				s-5.55,3.81-5.55,11.43C244.45,359.42,246.3,363.1,250,363.1z M250,355.16c-0.92,0-1.66-0.28-2.23-0.85
				c-0.57-0.57-0.85-1.31-0.85-2.23c0-0.93,0.28-1.68,0.85-2.24c0.57-0.56,1.31-0.84,2.23-0.84c0.93,0,1.68,0.28,2.24,0.84
				c0.56,0.56,0.84,1.31,0.84,2.24c0,0.92-0.28,1.66-0.84,2.23C251.68,354.88,250.93,355.16,250,355.16z"/>
			<path class="st0" d="M274.67,366.88c-6.63,0-9.95-4.93-9.95-14.8c0-10.14,3.32-15.21,9.95-15.21s9.95,5.07,9.95,15.21
				C284.62,361.95,281.31,366.88,274.67,366.88z M274.67,363.1c3.7,0,5.55-3.67,5.55-11.02c0-7.62-1.85-11.43-5.55-11.43
				s-5.55,3.81-5.55,11.43C269.12,359.42,270.97,363.1,274.67,363.1z M274.67,355.16c-0.92,0-1.66-0.28-2.23-0.85
				c-0.57-0.57-0.85-1.31-0.85-2.23c0-0.93,0.28-1.68,0.85-2.24c0.57-0.56,1.31-0.84,2.23-0.84c0.93,0,1.68,0.28,2.24,0.84
				c0.56,0.56,0.84,1.31,0.84,2.24c0,0.92-0.28,1.66-0.84,2.23C276.35,354.88,275.6,355.16,274.67,355.16z"/>
			<path class="st0" d="M299.34,366.88c-6.63,0-9.95-4.93-9.95-14.8c0-10.14,3.32-15.21,9.95-15.21s9.95,5.07,9.95,15.21
				C309.29,361.95,305.98,366.88,299.34,366.88z M299.34,363.1c3.7,0,5.55-3.67,5.55-11.02c0-7.62-1.85-11.43-5.55-11.43
				s-5.55,3.81-5.55,11.43C293.79,359.42,295.64,363.1,299.34,363.1z M299.34,355.16c-0.92,0-1.66-0.28-2.23-0.85
				c-0.57-0.57-0.85-1.31-0.85-2.23c0-0.93,0.28-1.68,0.85-2.24c0.57-0.56,1.31-0.84,2.23-0.84c0.93,0,1.68,0.28,2.24,0.84
				c0.56,0.56,0.84,1.31,0.84,2.24c0,0.92-0.28,1.66-0.84,2.23C301.02,354.88,300.27,355.16,299.34,355.16z"/>
			<path class="st0" d="M315.17,366.47v-3.91h7.81v3.91H315.17z M315.58,343.89v-4.15l6.99-2.47v4.23L315.58,343.89z M322.57,366.47
				v-29.19h4.11v29.19H322.57z M326.28,366.47v-3.91h7.03v3.91H326.28z"/>
			<path class="st0" d="M339.84,366.47v-3.91h7.81v3.91H339.84z M340.26,343.89v-4.15l6.99-2.47v4.23L340.26,343.89z M347.25,366.47
				v-29.19h4.11v29.19H347.25z M350.95,366.47v-3.91h7.03v3.91H350.95z"/>
			<path class="st0" d="M373.36,366.88c-6.63,0-9.95-4.93-9.95-14.8c0-10.14,3.32-15.21,9.95-15.21s9.95,5.07,9.95,15.21
				C383.31,361.95,379.99,366.88,373.36,366.88z M373.36,363.1c3.7,0,5.55-3.67,5.55-11.02c0-7.62-1.85-11.43-5.55-11.43
				s-5.55,3.81-5.55,11.43C367.8,359.42,369.65,363.1,373.36,363.1z M373.36,355.16c-0.92,0-1.66-0.28-2.23-0.85
				c-0.57-0.57-0.85-1.31-0.85-2.23c0-0.93,0.28-1.68,0.85-2.24c0.57-0.56,1.31-0.84,2.23-0.84c0.93,0,1.68,0.28,2.24,0.84
				c0.56,0.56,0.84,1.31,0.84,2.24c0,0.92-0.28,1.66-0.84,2.23C375.03,354.88,374.29,355.16,373.36,355.16z"/>
			<path class="st0" d="M389.19,366.47v-3.91H397v3.91H389.19z M389.6,343.89v-4.15l6.99-2.47v4.23L389.6,343.89z M396.59,366.47
				v-29.19h4.11v29.19H396.59z M400.29,366.47v-3.91h7.03v3.91H400.29z"/>
			<path class="st0" d="M422.7,366.88c-6.63,0-9.95-4.93-9.95-14.8c0-10.14,3.32-15.21,9.95-15.21s9.95,5.07,9.95,15.21
				C432.65,361.95,429.33,366.88,422.7,366.88z M422.7,363.1c3.7,0,5.55-3.67,5.55-11.02c0-7.62-1.85-11.43-5.55-11.43
				s-5.55,3.81-5.55,11.43C417.15,359.42,419,363.1,422.7,363.1z M422.7,355.16c-0.92,0-1.66-0.28-2.23-0.85
				c-0.57-0.57-0.85-1.31-0.85-2.23c0-0.93,0.28-1.68,0.85-2.24c0.57-0.56,1.31-0.84,2.23-0.84c0.93,0,1.68,0.28,2.24,0.84
				c0.56,0.56,0.84,1.31,0.84,2.24c0,0.92-0.28,1.66-0.84,2.23C424.38,354.88,423.63,355.16,422.7,355.16z"/>
			<path class="st0" d="M447.37,366.88c-6.63,0-9.95-4.93-9.95-14.8c0-10.14,3.32-15.21,9.95-15.21s9.95,5.07,9.95,15.21
				C457.32,361.95,454,366.88,447.37,366.88z M447.37,363.1c3.7,0,5.55-3.67,5.55-11.02c0-7.62-1.85-11.43-5.55-11.43
				s-5.55,3.81-5.55,11.43C441.82,359.42,443.67,363.1,447.37,363.1z M447.37,355.16c-0.92,0-1.66-0.28-2.23-0.85
				c-0.57-0.57-0.85-1.31-0.85-2.23c0-0.93,0.28-1.68,0.85-2.24c0.57-0.56,1.31-0.84,2.23-0.84c0.93,0,1.68,0.28,2.24,0.84
				c0.56,0.56,0.84,1.31,0.84,2.24c0,0.92-0.28,1.66-0.84,2.23C449.05,354.88,448.3,355.16,447.37,355.16z"/>
			<path class="st0" d="M93.14,416.99v-3.91h7.81v3.91H93.14z M93.55,394.42v-4.15l6.99-2.47v4.23L93.55,394.42z M100.54,416.99
				V387.8h4.11v29.19H100.54z M104.24,416.99v-3.91h7.03v3.91H104.24z"/>
			<path class="st0" d="M126.65,417.41c-6.63,0-9.95-4.93-9.95-14.8c0-10.14,3.32-15.21,9.95-15.21s9.95,5.07,9.95,15.21
				C136.6,412.47,133.28,417.41,126.65,417.41z M126.65,413.62c3.7,0,5.55-3.67,5.55-11.02c0-7.62-1.85-11.43-5.55-11.43
				s-5.55,3.81-5.55,11.43C121.1,409.95,122.95,413.62,126.65,413.62z M126.65,405.69c-0.92,0-1.66-0.28-2.23-0.85
				c-0.57-0.57-0.85-1.31-0.85-2.23c0-0.93,0.28-1.68,0.85-2.24c0.57-0.56,1.31-0.84,2.23-0.84c0.93,0,1.68,0.28,2.24,0.84
				c0.56,0.56,0.84,1.31,0.84,2.24c0,0.92-0.28,1.66-0.84,2.23C128.33,405.4,127.58,405.69,126.65,405.69z"/>
			<path class="st0" d="M142.48,416.99v-3.91h7.81v3.91H142.48z M142.89,394.42v-4.15l6.99-2.47v4.23L142.89,394.42z M149.88,416.99
				V387.8h4.11v29.19H149.88z M153.58,416.99v-3.91h7.03v3.91H153.58z"/>
			<path class="st0" d="M175.99,417.41c-6.63,0-9.95-4.93-9.95-14.8c0-10.14,3.32-15.21,9.95-15.21s9.95,5.07,9.95,15.21
				C185.94,412.47,182.62,417.41,175.99,417.41z M175.99,413.62c3.7,0,5.55-3.67,5.55-11.02c0-7.62-1.85-11.43-5.55-11.43
				s-5.55,3.81-5.55,11.43C170.44,409.95,172.29,413.62,175.99,413.62z M175.99,405.69c-0.92,0-1.66-0.28-2.23-0.85
				c-0.57-0.57-0.85-1.31-0.85-2.23c0-0.93,0.28-1.68,0.85-2.24c0.57-0.56,1.31-0.84,2.23-0.84c0.93,0,1.68,0.28,2.24,0.84
				c0.56,0.56,0.84,1.31,0.84,2.24c0,0.92-0.28,1.66-0.84,2.23C177.67,405.4,176.92,405.69,175.99,405.69z"/>
			<path class="st0" d="M200.66,417.41c-6.63,0-9.95-4.93-9.95-14.8c0-10.14,3.32-15.21,9.95-15.21s9.95,5.07,9.95,15.21
				C210.61,412.47,207.29,417.41,200.66,417.41z M200.66,413.62c3.7,0,5.55-3.67,5.55-11.02c0-7.62-1.85-11.43-5.55-11.43
				s-5.55,3.81-5.55,11.43C195.11,409.95,196.96,413.62,200.66,413.62z M200.66,405.69c-0.92,0-1.66-0.28-2.23-0.85
				c-0.57-0.57-0.85-1.31-0.85-2.23c0-0.93,0.28-1.68,0.85-2.24c0.57-0.56,1.31-0.84,2.23-0.84c0.93,0,1.68,0.28,2.24,0.84
				c0.56,0.56,0.84,1.31,0.84,2.24c0,0.92-0.28,1.66-0.84,2.23C202.34,405.4,201.59,405.69,200.66,405.69z"/>
			<path class="st0" d="M225.33,417.41c-6.63,0-9.95-4.93-9.95-14.8c0-10.14,3.32-15.21,9.95-15.21s9.95,5.07,9.95,15.21
				C235.28,412.47,231.96,417.41,225.33,417.41z M225.33,413.62c3.7,0,5.55-3.67,5.55-11.02c0-7.62-1.85-11.43-5.55-11.43
				s-5.55,3.81-5.55,11.43C219.78,409.95,221.63,413.62,225.33,413.62z M225.33,405.69c-0.92,0-1.66-0.28-2.23-0.85
				c-0.57-0.57-0.85-1.31-0.85-2.23c0-0.93,0.28-1.68,0.85-2.24c0.57-0.56,1.31-0.84,2.23-0.84c0.93,0,1.68,0.28,2.24,0.84
				c0.56,0.56,0.84,1.31,0.84,2.24c0,0.92-0.28,1.66-0.84,2.23C227.01,405.4,226.26,405.69,225.33,405.69z"/>
			<path class="st0" d="M250,417.41c-6.63,0-9.95-4.93-9.95-14.8c0-10.14,3.32-15.21,9.95-15.21s9.95,5.07,9.95,15.21
				C259.95,412.47,256.64,417.41,250,417.41z M250,413.62c3.7,0,5.55-3.67,5.55-11.02c0-7.62-1.85-11.43-5.55-11.43
				s-5.55,3.81-5.55,11.43C244.45,409.95,246.3,413.62,250,413.62z M250,405.69c-0.92,0-1.66-0.28-2.23-0.85
				c-0.57-0.57-0.85-1.31-0.85-2.23c0-0.93,0.28-1.68,0.85-2.24c0.57-0.56,1.31-0.84,2.23-0.84c0.93,0,1.68,0.28,2.24,0.84
				c0.56,0.56,0.84,1.31,0.84,2.24c0,0.92-0.28,1.66-0.84,2.23C251.68,405.4,250.93,405.69,250,405.69z"/>
			<path class="st0" d="M274.67,417.41c-6.63,0-9.95-4.93-9.95-14.8c0-10.14,3.32-15.21,9.95-15.21s9.95,5.07,9.95,15.21
				C284.62,412.47,281.31,417.41,274.67,417.41z M274.67,413.62c3.7,0,5.55-3.67,5.55-11.02c0-7.62-1.85-11.43-5.55-11.43
				s-5.55,3.81-5.55,11.43C269.12,409.95,270.97,413.62,274.67,413.62z M274.67,405.69c-0.92,0-1.66-0.28-2.23-0.85
				c-0.57-0.57-0.85-1.31-0.85-2.23c0-0.93,0.28-1.68,0.85-2.24c0.57-0.56,1.31-0.84,2.23-0.84c0.93,0,1.68,0.28,2.24,0.84
				c0.56,0.56,0.84,1.31,0.84,2.24c0,0.92-0.28,1.66-0.84,2.23C276.35,405.4,275.6,405.69,274.67,405.69z"/>
			<path class="st0" d="M290.5,416.99v-3.91h7.81v3.91H290.5z M290.91,394.42v-4.15l6.99-2.47v4.23L290.91,394.42z M297.9,416.99
				V387.8h4.11v29.19H297.9z M301.61,416.99v-3.91h7.03v3.91H301.61z"/>
			<path class="st0" d="M324.01,417.41c-6.63,0-9.95-4.93-9.95-14.8c0-10.14,3.32-15.21,9.95-15.21s9.95,5.07,9.95,15.21
				C333.97,412.47,330.65,417.41,324.01,417.41z M324.01,413.62c3.7,0,5.55-3.67,5.55-11.02c0-7.62-1.85-11.43-5.55-11.43
				s-5.55,3.81-5.55,11.43C318.46,409.95,320.31,413.62,324.01,413.62z M324.01,405.69c-0.92,0-1.66-0.28-2.23-0.85
				c-0.57-0.57-0.85-1.31-0.85-2.23c0-0.93,0.28-1.68,0.85-2.24c0.57-0.56,1.31-0.84,2.23-0.84c0.93,0,1.68,0.28,2.24,0.84
				c0.56,0.56,0.84,1.31,0.84,2.24c0,0.92-0.28,1.66-0.84,2.23C325.69,405.4,324.95,405.69,324.01,405.69z"/>
			<path class="st0" d="M339.85,416.99v-3.91h7.81v3.91H339.85z M340.26,394.42v-4.15l6.99-2.47v4.23L340.26,394.42z M347.25,416.99
				V387.8h4.11v29.19H347.25z M350.95,416.99v-3.91h7.03v3.91H350.95z"/>
			<path class="st0" d="M364.52,416.99v-3.91h7.81v3.91H364.52z M364.93,394.42v-4.15l6.99-2.47v4.23L364.93,394.42z M371.92,416.99
				V387.8h4.11v29.19H371.92z M375.62,416.99v-3.91h7.03v3.91H375.62z"/>
			<path class="st0" d="M398.03,417.41c-6.63,0-9.95-4.93-9.95-14.8c0-10.14,3.32-15.21,9.95-15.21s9.95,5.07,9.95,15.21
				C407.98,412.47,404.66,417.41,398.03,417.41z M398.03,413.62c3.7,0,5.55-3.67,5.55-11.02c0-7.62-1.85-11.43-5.55-11.43
				s-5.55,3.81-5.55,11.43C392.48,409.95,394.33,413.62,398.03,413.62z M398.03,405.69c-0.92,0-1.66-0.28-2.23-0.85
				c-0.57-0.57-0.85-1.31-0.85-2.23c0-0.93,0.28-1.68,0.85-2.24c0.57-0.56,1.31-0.84,2.23-0.84c0.93,0,1.68,0.28,2.24,0.84
				c0.56,0.56,0.84,1.31,0.84,2.24c0,0.92-0.28,1.66-0.84,2.23C399.71,405.4,398.96,405.69,398.03,405.69z"/>
			<path class="st0" d="M204.16,467.52v-3.91h7.81v3.91H204.16z M204.57,444.95v-4.15l6.99-2.47v4.23L204.57,444.95z M211.56,467.52
				v-29.19h4.11v29.19H211.56z M215.26,467.52v-3.91h7.03v3.91H215.26z"/>
			<path class="st0" d="M237.67,467.93c-6.63,0-9.95-4.93-9.95-14.8c0-10.14,3.32-15.21,9.95-15.21s9.95,5.07,9.95,15.21
				C247.62,463,244.3,467.93,237.67,467.93z M237.67,464.15c3.7,0,5.55-3.67,5.55-11.02c0-7.62-1.85-11.43-5.55-11.43
				s-5.55,3.81-5.55,11.43C232.12,460.48,233.97,464.15,237.67,464.15z M237.67,456.21c-0.92,0-1.66-0.28-2.23-0.85
				c-0.57-0.57-0.85-1.31-0.85-2.23c0-0.93,0.28-1.68,0.85-2.24c0.57-0.56,1.31-0.84,2.23-0.84c0.93,0,1.68,0.28,2.24,0.84
				c0.56,0.56,0.84,1.31,0.84,2.24c0,0.92-0.28,1.66-0.84,2.23C239.35,455.93,238.6,456.21,237.67,456.21z"/>
			<path class="st0" d="M253.5,467.52v-3.91h7.81v3.91H253.5z M253.91,444.95v-4.15l6.99-2.47v4.23L253.91,444.95z M260.9,467.52
				v-29.19h4.11v29.19H260.9z M264.6,467.52v-3.91h7.03v3.91H264.6z"/>
			<path class="st0" d="M278.17,467.52v-3.91h7.81v3.91H278.17z M278.58,444.95v-4.15l6.99-2.47v4.23L278.58,444.95z M285.57,467.52
				v-29.19h4.11v29.19H285.57z M289.27,467.52v-3.91h7.03v3.91H289.27z"/>
		</g>
	</g>
</g>
<g id="Dino">
	<path id="Outline_00000052091694479828581810000004935374004062986669_" class="st1" d="M297.22,450c-14.15,0-25.69-3.21-34.3-9.53
		l-0.26-0.19c-11.46-9-12.08-19.58-13.09-37.12c-0.72-12.54-1.72-29.71-6.55-55.78c-3.45-18.64-7.91-34.42-10.26-42.16
		c-1.91-6.28-3.99-12.56-6.21-18.73c-11.82-0.67-35.33-3.05-53.23-7.04c-28.02-6.25-51.36-16.23-65.8-28.15
		c-3.86-2.62-7.56-5.75-11-9.33c-14.2-11.94-24.86-30.47-29.27-50.93c-4.71-21.82-1.95-43.1,7.77-59.93
		c15.3-26.96,37.03-47.81,64.56-61.9C164.12,56.64,192.79,50,222.5,50c36.17,0,72.17,9.74,101.37,27.44l0.11,0.07
		c35.8,22.31,57.15,50.39,61.77,81.24c2.42,9.75,4.64,20.58,7.21,33.08c6.84,33.31,15.35,74.72,33.15,121.54
		c19.25,32.93,6.85,69.9-33.3,99.12C365.86,434.93,327.5,450,297.22,450C297.22,450,297.22,450,297.22,450z"/>
	<g id="Saur">
		<path id="Shadow_1_" class="st0" d="M417.04,318.4c-25.07-66.32-32.21-122.51-41.15-158.67c-4.84-34.02-30.7-58.77-57.25-75.48
			c-70.73-43.3-185.54-37.36-234.97,50.64C64.48,168.42,79.01,219.31,109,238.7c28.27,23.04,93.01,37.24,151.24,32.62
			c0.72,10.23-15.75,9.58-23.41,10.34c4.65,12.24,11.02,29.71,16.86,60.37c11.83,62.15,2.07,76.67,16.6,87.78
			C313.95,461.01,460.48,391.36,417.04,318.4z"/>
		<path id="Body" class="st2" d="M410.25,322.94c-24.15-66.32-31.03-122.51-39.64-158.67c-4.66-34.02-29.57-58.77-55.15-75.48
			c-68.13-43.3-178.73-37.36-226.35,50.64c-18.48,33.54-4.49,84.42,24.4,103.81c27.23,23.04,89.6,37.24,145.69,32.62
			c0.69,10.23-15.17,9.58-22.55,10.34c4.48,12.24,10.62,29.71,16.24,60.37c11.4,62.15,1.99,76.67,15.99,87.78
			C310.94,465.55,452.09,395.9,410.25,322.94z"/>
		<circle id="Eye" class="st1" cx="242" cy="148" r="25"/>
	</g>
</g>
</svg>
