<?xml version="1.0" encoding="utf-8"?>
<!-- Generator: Adobe Illustrator 26.0.2, SVG Export Plug-In . SVG Version: 6.00 Build 0)  -->
<svg version="1.1" id="Neo" xmlns="http://www.w3.org/2000/svg" xmlns:xlink="http://www.w3.org/1999/xlink" x="0px" y="0px"
	 viewBox="0 0 500 500" style="enable-background:new 0 0 500 500;" xml:space="preserve">
<style type="text/css">
	.st0{fill:#3E7438;}
	.st1{fill:#090B0C;}
	.st2{fill:#72B662;}
</style>
<circle id="Background" cx="250" cy="250" r="250"/>
<g id="Numbers_00000048470317435747969360000004567197244414637750_">
	<g>
		<g>
			<path class="st0" d="M205.43,63.98v-6.49h12.99v6.49H205.43z M206.12,26.45v-6.9l11.62-4.1v7.04L206.12,26.45z M217.74,63.98
				V15.44h6.84v48.54H217.74z M223.89,63.98v-6.49h11.69v6.49H223.89z"/>
			<path class="st0" d="M279.87,64.66c-11.03,0-16.54-8.2-16.54-24.61c0-16.86,5.51-25.29,16.54-25.29
				c11.03,0,16.54,8.43,16.54,25.29C296.42,56.46,290.9,64.66,279.87,64.66z M279.87,58.37c6.15,0,9.23-6.11,9.23-18.32
				c0-12.67-3.08-19-9.23-19s-9.23,6.33-9.23,19C270.65,52.26,273.72,58.37,279.87,58.37z M279.87,45.18
				c-1.53,0-2.76-0.47-3.71-1.42c-0.95-0.95-1.42-2.18-1.42-3.71c0-1.55,0.47-2.79,1.42-3.73c0.95-0.93,2.18-1.4,3.71-1.4
				c1.55,0,2.79,0.47,3.73,1.4c0.93,0.93,1.4,2.18,1.4,3.73c0,1.53-0.47,2.76-1.4,3.71C282.67,44.7,281.42,45.18,279.87,45.18z"/>
			<path class="st0" d="M70.17,147.98v-6.49h12.99v6.49H70.17z M70.85,110.45v-6.9l11.62-4.1v7.04L70.85,110.45z M82.48,147.98
				V99.44h6.84v48.54H82.48z M88.63,147.98v-6.49h11.69v6.49H88.63z"/>
			<path class="st0" d="M126.15,148.66c-11.03,0-16.54-8.2-16.54-24.61c0-16.86,5.51-25.29,16.54-25.29
				c11.03,0,16.54,8.43,16.54,25.29C142.69,140.46,137.18,148.66,126.15,148.66z M126.15,142.37c6.15,0,9.23-6.11,9.23-18.32
				c0-12.67-3.08-19-9.23-19s-9.23,6.33-9.23,19C116.92,136.26,120,142.37,126.15,142.37z M126.15,129.18
				c-1.53,0-2.76-0.47-3.71-1.42c-0.95-0.95-1.42-2.18-1.42-3.71c0-1.55,0.47-2.79,1.42-3.73c0.95-0.93,2.18-1.4,3.71-1.4
				c1.55,0,2.79,0.47,3.73,1.4c0.93,0.93,1.4,2.18,1.4,3.73c0,1.53-0.47,2.76-1.4,3.71C128.94,128.7,127.7,129.18,126.15,129.18z"/>
			<path class="st0" d="M152.74,147.98v-6.49h12.99v6.49H152.74z M153.42,110.45v-6.9l11.62-4.1v7.04L153.42,110.45z M165.04,147.98
				V99.44h6.84v48.54H165.04z M171.2,147.98v-6.49h11.69v6.49H171.2z"/>
			<path class="st0" d="M208.72,148.66c-11.03,0-16.54-8.2-16.54-24.61c0-16.86,5.51-25.29,16.54-25.29
				c11.03,0,16.54,8.43,16.54,25.29C225.26,140.46,219.75,148.66,208.72,148.66z M208.72,142.37c6.15,0,9.23-6.11,9.23-18.32
				c0-12.67-3.08-19-9.23-19s-9.23,6.33-9.23,19C199.49,136.26,202.57,142.37,208.72,142.37z M208.72,129.18
				c-1.53,0-2.76-0.47-3.71-1.42c-0.95-0.95-1.42-2.18-1.42-3.71c0-1.55,0.47-2.79,1.42-3.73c0.95-0.93,2.18-1.4,3.71-1.4
				c1.55,0,2.79,0.47,3.73,1.4c0.93,0.93,1.4,2.18,1.4,3.73c0,1.53-0.47,2.76-1.4,3.71C211.51,128.7,210.27,129.18,208.72,129.18z"
				/>
			<path class="st0" d="M235.31,147.98v-6.49h12.99v6.49H235.31z M235.99,110.45v-6.9l11.62-4.1v7.04L235.99,110.45z M247.61,147.98
				V99.44h6.84v48.54H247.61z M253.76,147.98v-6.49h11.69v6.49H253.76z"/>
			<path class="st0" d="M291.29,148.66c-11.03,0-16.54-8.2-16.54-24.61c0-16.86,5.51-25.29,16.54-25.29
				c11.03,0,16.54,8.43,16.54,25.29C307.83,140.46,302.31,148.66,291.29,148.66z M291.29,142.37c6.15,0,9.23-6.11,9.23-18.32
				c0-12.67-3.08-19-9.23-19s-9.23,6.33-9.23,19C282.06,136.26,285.13,142.37,291.29,142.37z M291.29,129.18
				c-1.53,0-2.76-0.47-3.71-1.42c-0.95-0.95-1.42-2.18-1.42-3.71c0-1.55,0.47-2.79,1.42-3.73c0.95-0.93,2.18-1.4,3.71-1.4
				c1.55,0,2.79,0.47,3.73,1.4c0.93,0.93,1.4,2.18,1.4,3.73c0,1.53-0.47,2.76-1.4,3.71C294.08,128.7,292.84,129.18,291.29,129.18z"
				/>
			<path class="st0" d="M332.57,148.66c-11.03,0-16.54-8.2-16.54-24.61c0-16.86,5.51-25.29,16.54-25.29
				c11.03,0,16.54,8.43,16.54,25.29C349.11,140.46,343.6,148.66,332.57,148.66z M332.57,142.37c6.15,0,9.23-6.11,9.23-18.32
				c0-12.67-3.08-19-9.23-19s-9.23,6.33-9.23,19C323.34,136.26,326.42,142.37,332.57,142.37z M332.57,129.18
				c-1.53,0-2.76-0.47-3.71-1.42c-0.95-0.95-1.42-2.18-1.42-3.71c0-1.55,0.47-2.79,1.42-3.73c0.95-0.93,2.18-1.4,3.71-1.4
				c1.55,0,2.79,0.47,3.73,1.4c0.93,0.93,1.4,2.18,1.4,3.73c0,1.53-0.47,2.76-1.4,3.71C335.36,128.7,334.12,129.18,332.57,129.18z"
				/>
			<path class="st0" d="M373.85,148.66c-11.03,0-16.54-8.2-16.54-24.61c0-16.86,5.51-25.29,16.54-25.29
				c11.03,0,16.54,8.43,16.54,25.29C390.4,140.46,384.88,148.66,373.85,148.66z M373.85,142.37c6.15,0,9.23-6.11,9.23-18.32
				c0-12.67-3.08-19-9.23-19s-9.23,6.33-9.23,19C364.62,136.26,367.7,142.37,373.85,142.37z M373.85,129.18
				c-1.53,0-2.76-0.47-3.71-1.42c-0.95-0.95-1.42-2.18-1.42-3.71c0-1.55,0.47-2.79,1.42-3.73c0.95-0.93,2.18-1.4,3.71-1.4
				c1.55,0,2.79,0.47,3.73,1.4c0.93,0.93,1.4,2.18,1.4,3.73c0,1.53-0.47,2.76-1.4,3.71C376.64,128.7,375.4,129.18,373.85,129.18z"/>
			<path class="st0" d="M415.14,148.66c-11.03,0-16.54-8.2-16.54-24.61c0-16.86,5.51-25.29,16.54-25.29
				c11.03,0,16.54,8.43,16.54,25.29C431.68,140.46,426.17,148.66,415.14,148.66z M415.14,142.37c6.15,0,9.23-6.11,9.23-18.32
				c0-12.67-3.08-19-9.23-19s-9.23,6.33-9.23,19C405.91,136.26,408.98,142.37,415.14,142.37z M415.14,129.18
				c-1.53,0-2.76-0.47-3.71-1.42c-0.95-0.95-1.42-2.18-1.42-3.71c0-1.55,0.47-2.79,1.42-3.73c0.95-0.93,2.18-1.4,3.71-1.4
				c1.55,0,2.79,0.47,3.73,1.4c0.93,0.93,1.4,2.18,1.4,3.73c0,1.53-0.47,2.76-1.4,3.71C417.93,128.7,416.69,129.18,415.14,129.18z"
				/>
			<path class="st0" d="M41.77,232.66c-11.03,0-16.54-8.2-16.54-24.61c0-16.86,5.51-25.29,16.54-25.29
				c11.03,0,16.54,8.43,16.54,25.29C58.32,224.46,52.8,232.66,41.77,232.66z M41.77,226.37c6.15,0,9.23-6.11,9.23-18.32
				c0-12.67-3.08-19-9.23-19s-9.23,6.33-9.23,19C32.55,220.26,35.62,226.37,41.77,226.37z M41.77,213.18
				c-1.53,0-2.76-0.47-3.71-1.42c-0.95-0.95-1.42-2.18-1.42-3.71c0-1.55,0.47-2.79,1.42-3.73c0.95-0.93,2.18-1.4,3.71-1.4
				c1.55,0,2.79,0.47,3.73,1.4c0.93,0.93,1.4,2.18,1.4,3.73c0,1.53-0.47,2.76-1.4,3.71C44.56,212.7,43.32,213.18,41.77,213.18z"/>
			<path class="st0" d="M68.72,231.98v-6.49h12.99v6.49H68.72z M69.41,194.45v-6.9l11.62-4.1v7.04L69.41,194.45z M81.03,231.98
				v-48.54h6.84v48.54H81.03z M87.18,231.98v-6.49h11.69v6.49H87.18z"/>
			<path class="st0" d="M110.37,231.98v-6.49h12.99v6.49H110.37z M111.05,194.45v-6.9l11.62-4.1v7.04L111.05,194.45z M122.67,231.98
				v-48.54h6.84v48.54H122.67z M128.83,231.98v-6.49h11.69v6.49H128.83z"/>
			<path class="st0" d="M152.01,231.98v-6.49H165v6.49H152.01z M152.7,194.45v-6.9l11.62-4.1v7.04L152.7,194.45z M164.32,231.98
				v-48.54h6.84v48.54H164.32z M170.47,231.98v-6.49h11.69v6.49H170.47z"/>
			<path class="st0" d="M208.36,232.66c-11.03,0-16.54-8.2-16.54-24.61c0-16.86,5.51-25.29,16.54-25.29
				c11.03,0,16.54,8.43,16.54,25.29C224.9,224.46,219.38,232.66,208.36,232.66z M208.36,226.37c6.15,0,9.23-6.11,9.23-18.32
				c0-12.67-3.08-19-9.23-19s-9.23,6.33-9.23,19C199.13,220.26,202.2,226.37,208.36,226.37z M208.36,213.18
				c-1.53,0-2.76-0.47-3.71-1.42c-0.95-0.95-1.42-2.18-1.42-3.71c0-1.55,0.47-2.79,1.42-3.73c0.95-0.93,2.18-1.4,3.71-1.4
				c1.55,0,2.79,0.47,3.73,1.4c0.93,0.93,1.4,2.18,1.4,3.73c0,1.53-0.47,2.76-1.4,3.71C211.15,212.7,209.91,213.18,208.36,213.18z"
				/>
			<path class="st0" d="M250,232.66c-11.03,0-16.54-8.2-16.54-24.61c0-16.86,5.51-25.29,16.54-25.29c11.03,0,16.54,8.43,16.54,25.29
				C266.54,224.46,261.03,232.66,250,232.66z M250,226.37c6.15,0,9.23-6.11,9.23-18.32c0-12.67-3.08-19-9.23-19s-9.23,6.33-9.23,19
				C240.77,220.26,243.85,226.37,250,226.37z M250,213.18c-1.53,0-2.76-0.47-3.71-1.42c-0.95-0.95-1.42-2.18-1.42-3.71
				c0-1.55,0.47-2.79,1.42-3.73c0.95-0.93,2.18-1.4,3.71-1.4c1.55,0,2.79,0.47,3.73,1.4c0.93,0.93,1.4,2.18,1.4,3.73
				c0,1.53-0.47,2.76-1.4,3.71C252.79,212.7,251.55,213.18,250,213.18z"/>
			<path class="st0" d="M276.95,231.98v-6.49h12.99v6.49H276.95z M277.63,194.45v-6.9l11.62-4.1v7.04L277.63,194.45z M289.26,231.98
				v-48.54h6.84v48.54H289.26z M295.41,231.98v-6.49h11.69v6.49H295.41z"/>
			<path class="st0" d="M333.29,232.66c-11.03,0-16.54-8.2-16.54-24.61c0-16.86,5.51-25.29,16.54-25.29
				c11.03,0,16.54,8.43,16.54,25.29C349.84,224.46,344.32,232.66,333.29,232.66z M333.29,226.37c6.15,0,9.23-6.11,9.23-18.32
				c0-12.67-3.08-19-9.23-19s-9.23,6.33-9.23,19C324.06,220.26,327.14,226.37,333.29,226.37z M333.29,213.18
				c-1.53,0-2.76-0.47-3.71-1.42c-0.95-0.95-1.42-2.18-1.42-3.71c0-1.55,0.47-2.79,1.42-3.73c0.95-0.93,2.18-1.4,3.71-1.4
				c1.55,0,2.79,0.47,3.73,1.4c0.93,0.93,1.4,2.18,1.4,3.73c0,1.53-0.47,2.76-1.4,3.71C336.08,212.7,334.84,213.18,333.29,213.18z"
				/>
			<path class="st0" d="M360.24,231.98v-6.49h12.99v6.49H360.24z M360.93,194.45v-6.9l11.62-4.1v7.04L360.93,194.45z M372.55,231.98
				v-48.54h6.84v48.54H372.55z M378.7,231.98v-6.49h11.69v6.49H378.7z"/>
			<path class="st0" d="M416.58,232.66c-11.03,0-16.54-8.2-16.54-24.61c0-16.86,5.51-25.29,16.54-25.29
				c11.03,0,16.54,8.43,16.54,25.29C433.13,224.46,427.61,232.66,416.58,232.66z M416.58,226.37c6.15,0,9.23-6.11,9.23-18.32
				c0-12.67-3.08-19-9.23-19s-9.23,6.33-9.23,19C407.36,220.26,410.43,226.37,416.58,226.37z M416.58,213.18
				c-1.53,0-2.76-0.47-3.71-1.42c-0.95-0.95-1.42-2.18-1.42-3.71c0-1.55,0.47-2.79,1.42-3.73c0.95-0.93,2.18-1.4,3.71-1.4
				c1.55,0,2.79,0.47,3.73,1.4c0.93,0.93,1.4,2.18,1.4,3.73c0,1.53-0.47,2.76-1.4,3.71C419.38,212.7,418.13,213.18,416.58,213.18z"
				/>
			<path class="st0" d="M443.53,231.98v-6.49h12.99v6.49H443.53z M444.22,194.45v-6.9l11.62-4.1v7.04L444.22,194.45z M455.84,231.98
				v-48.54h6.84v48.54H455.84z M461.99,231.98v-6.49h11.69v6.49H461.99z"/>
			<path class="st0" d="M27.59,315.98v-6.49h12.99v6.49H27.59z M28.28,278.45v-6.9l11.62-4.1v7.04L28.28,278.45z M39.9,315.98
				v-48.54h6.84v48.54H39.9z M46.05,315.98v-6.49h11.69v6.49H46.05z"/>
			<path class="st0" d="M69.14,315.98v-6.49h12.99v6.49H69.14z M69.82,278.45v-6.9l11.62-4.1v7.04L69.82,278.45z M81.44,315.98
				v-48.54h6.84v48.54H81.44z M87.59,315.98v-6.49h11.69v6.49H87.59z"/>
			<path class="st0" d="M125.38,316.66c-11.03,0-16.54-8.2-16.54-24.61c0-16.86,5.51-25.29,16.54-25.29
				c11.03,0,16.54,8.43,16.54,25.29C141.92,308.46,136.4,316.66,125.38,316.66z M125.38,310.37c6.15,0,9.23-6.11,9.23-18.32
				c0-12.67-3.08-19-9.23-19s-9.23,6.33-9.23,19C116.15,304.26,119.22,310.37,125.38,310.37z M125.38,297.18
				c-1.53,0-2.76-0.47-3.71-1.42c-0.95-0.95-1.42-2.18-1.42-3.71c0-1.55,0.47-2.79,1.42-3.73c0.95-0.93,2.18-1.4,3.71-1.4
				c1.55,0,2.79,0.47,3.73,1.4c0.93,0.93,1.4,2.18,1.4,3.73c0,1.53-0.47,2.76-1.4,3.71C128.17,296.7,126.92,297.18,125.38,297.18z"
				/>
			<path class="st0" d="M152.22,315.98v-6.49h12.99v6.49H152.22z M152.9,278.45v-6.9l11.62-4.1v7.04L152.9,278.45z M164.53,315.98
				v-48.54h6.84v48.54H164.53z M170.68,315.98v-6.49h11.69v6.49H170.68z"/>
			<path class="st0" d="M208.46,316.66c-11.03,0-16.54-8.2-16.54-24.61c0-16.86,5.51-25.29,16.54-25.29
				c11.03,0,16.54,8.43,16.54,25.29C225,308.46,219.49,316.66,208.46,316.66z M208.46,310.37c6.15,0,9.23-6.11,9.23-18.32
				c0-12.67-3.08-19-9.23-19s-9.23,6.33-9.23,19C199.23,304.26,202.31,310.37,208.46,310.37z M208.46,297.18
				c-1.53,0-2.76-0.47-3.71-1.42c-0.95-0.95-1.42-2.18-1.42-3.71c0-1.55,0.47-2.79,1.42-3.73c0.95-0.93,2.18-1.4,3.71-1.4
				c1.55,0,2.79,0.47,3.73,1.4c0.93,0.93,1.4,2.18,1.4,3.73c0,1.53-0.47,2.76-1.4,3.71C211.25,296.7,210.01,297.18,208.46,297.18z"
				/>
			<path class="st0" d="M235.3,315.98v-6.49h12.99v6.49H235.3z M235.99,278.45v-6.9l11.62-4.1v7.04L235.99,278.45z M247.61,315.98
				v-48.54h6.84v48.54H247.61z M253.76,315.98v-6.49h11.69v6.49H253.76z"/>
			<path class="st0" d="M291.54,316.66c-11.03,0-16.54-8.2-16.54-24.61c0-16.86,5.51-25.29,16.54-25.29
				c11.03,0,16.54,8.43,16.54,25.29C308.09,308.46,302.57,316.66,291.54,316.66z M291.54,310.37c6.15,0,9.23-6.11,9.23-18.32
				c0-12.67-3.08-19-9.23-19s-9.23,6.33-9.23,19C282.32,304.26,285.39,310.37,291.54,310.37z M291.54,297.18
				c-1.53,0-2.76-0.47-3.71-1.42c-0.95-0.95-1.42-2.18-1.42-3.71c0-1.55,0.47-2.79,1.42-3.73c0.95-0.93,2.18-1.4,3.71-1.4
				c1.55,0,2.79,0.47,3.73,1.4c0.93,0.93,1.4,2.18,1.4,3.73c0,1.53-0.47,2.76-1.4,3.71C294.34,296.7,293.09,297.18,291.54,297.18z"
				/>
			<path class="st0" d="M333.09,316.66c-11.03,0-16.54-8.2-16.54-24.61c0-16.86,5.51-25.29,16.54-25.29
				c11.03,0,16.54,8.43,16.54,25.29C349.63,308.46,344.12,316.66,333.09,316.66z M333.09,310.37c6.15,0,9.23-6.11,9.23-18.32
				c0-12.67-3.08-19-9.23-19s-9.23,6.33-9.23,19C323.86,304.26,326.93,310.37,333.09,310.37z M333.09,297.18
				c-1.53,0-2.76-0.47-3.71-1.42c-0.95-0.95-1.42-2.18-1.42-3.71c0-1.55,0.47-2.79,1.42-3.73c0.95-0.93,2.18-1.4,3.71-1.4
				c1.55,0,2.79,0.47,3.73,1.4c0.93,0.93,1.4,2.18,1.4,3.73c0,1.53-0.47,2.76-1.4,3.71C335.88,296.7,334.64,297.18,333.09,297.18z"
				/>
			<path class="st0" d="M374.63,316.66c-11.03,0-16.54-8.2-16.54-24.61c0-16.86,5.51-25.29,16.54-25.29
				c11.03,0,16.54,8.43,16.54,25.29C391.17,308.46,385.66,316.66,374.63,316.66z M374.63,310.37c6.15,0,9.23-6.11,9.23-18.32
				c0-12.67-3.08-19-9.23-19s-9.23,6.33-9.23,19C365.4,304.26,368.48,310.37,374.63,310.37z M374.63,297.18
				c-1.53,0-2.76-0.47-3.71-1.42c-0.95-0.95-1.42-2.18-1.42-3.71c0-1.55,0.47-2.79,1.42-3.73c0.95-0.93,2.18-1.4,3.71-1.4
				c1.55,0,2.79,0.47,3.73,1.4c0.93,0.93,1.4,2.18,1.4,3.73c0,1.53-0.47,2.76-1.4,3.71C377.42,296.7,376.18,297.18,374.63,297.18z"
				/>
			<path class="st0" d="M416.17,316.66c-11.03,0-16.54-8.2-16.54-24.61c0-16.86,5.51-25.29,16.54-25.29
				c11.03,0,16.54,8.43,16.54,25.29C432.71,308.46,427.2,316.66,416.17,316.66z M416.17,310.37c6.15,0,9.23-6.11,9.23-18.32
				c0-12.67-3.08-19-9.23-19s-9.23,6.33-9.23,19C406.94,304.26,410.02,310.37,416.17,310.37z M416.17,297.18
				c-1.53,0-2.76-0.47-3.71-1.42c-0.95-0.95-1.42-2.18-1.42-3.71c0-1.55,0.47-2.79,1.42-3.73c0.95-0.93,2.18-1.4,3.71-1.4
				c1.55,0,2.79,0.47,3.73,1.4c0.93,0.93,1.4,2.18,1.4,3.73c0,1.53-0.47,2.76-1.4,3.71C418.96,296.7,417.72,297.18,416.17,297.18z"
				/>
			<path class="st0" d="M457.71,316.66c-11.03,0-16.54-8.2-16.54-24.61c0-16.86,5.51-25.29,16.54-25.29
				c11.03,0,16.54,8.43,16.54,25.29C474.26,308.46,468.74,316.66,457.71,316.66z M457.71,310.37c6.15,0,9.23-6.11,9.23-18.32
				c0-12.67-3.08-19-9.23-19s-9.23,6.33-9.23,19C448.48,304.26,451.56,310.37,457.71,310.37z M457.71,297.18
				c-1.53,0-2.76-0.47-3.71-1.42c-0.95-0.95-1.42-2.18-1.42-3.71c0-1.55,0.47-2.79,1.42-3.73c0.95-0.93,2.18-1.4,3.71-1.4
				c1.55,0,2.79,0.47,3.73,1.4c0.93,0.93,1.4,2.18,1.4,3.73c0,1.53-0.47,2.76-1.4,3.71C460.5,296.7,459.26,297.18,457.71,297.18z"/>
			<path class="st0" d="M71.64,399.98v-6.49h12.99v6.49H71.64z M72.32,362.45v-6.9l11.62-4.1v7.04L72.32,362.45z M83.95,399.98
				v-48.54h6.84v48.54H83.95z M90.1,399.98v-6.49h11.69v6.49H90.1z"/>
			<path class="st0" d="M118.4,399.98v-6.49h12.99v6.49H118.4z M119.09,362.45v-6.9l11.62-4.1v7.04L119.09,362.45z M130.71,399.98
				v-48.54h6.84v48.54H130.71z M136.86,399.98v-6.49h11.69v6.49H136.86z"/>
			<path class="st0" d="M165.16,399.98v-6.49h12.99v6.49H165.16z M165.85,362.45v-6.9l11.62-4.1v7.04L165.85,362.45z M177.47,399.98
				v-48.54h6.84v48.54H177.47z M183.62,399.98v-6.49h11.69v6.49H183.62z"/>
			<path class="st0" d="M226.62,400.66c-11.03,0-16.54-8.2-16.54-24.61c0-16.86,5.51-25.29,16.54-25.29
				c11.03,0,16.54,8.43,16.54,25.29C243.16,392.46,237.65,400.66,226.62,400.66z M226.62,394.37c6.15,0,9.23-6.11,9.23-18.32
				c0-12.67-3.08-19-9.23-19s-9.23,6.33-9.23,19C217.39,388.26,220.47,394.37,226.62,394.37z M226.62,381.18
				c-1.53,0-2.76-0.47-3.71-1.42c-0.95-0.95-1.42-2.18-1.42-3.71c0-1.55,0.47-2.79,1.42-3.73c0.95-0.93,2.18-1.4,3.71-1.4
				c1.55,0,2.79,0.47,3.73,1.4c0.93,0.93,1.4,2.18,1.4,3.73c0,1.53-0.47,2.76-1.4,3.71C229.41,380.7,228.17,381.18,226.62,381.18z"
				/>
			<path class="st0" d="M273.38,400.66c-11.03,0-16.54-8.2-16.54-24.61c0-16.86,5.51-25.29,16.54-25.29
				c11.03,0,16.54,8.43,16.54,25.29C289.93,392.46,284.41,400.66,273.38,400.66z M273.38,394.37c6.15,0,9.23-6.11,9.23-18.32
				c0-12.67-3.08-19-9.23-19s-9.23,6.33-9.23,19C264.15,388.26,267.23,394.37,273.38,394.37z M273.38,381.18
				c-1.53,0-2.76-0.47-3.71-1.42c-0.95-0.95-1.42-2.18-1.42-3.71c0-1.55,0.47-2.79,1.42-3.73c0.95-0.93,2.18-1.4,3.71-1.4
				c1.55,0,2.79,0.47,3.73,1.4c0.93,0.93,1.4,2.18,1.4,3.73c0,1.53-0.47,2.76-1.4,3.71C276.17,380.7,274.93,381.18,273.38,381.18z"
				/>
			<path class="st0" d="M305.45,399.98v-6.49h12.99v6.49H305.45z M306.13,362.45v-6.9l11.62-4.1v7.04L306.13,362.45z M317.75,399.98
				v-48.54h6.84v48.54H317.75z M323.9,399.98v-6.49h11.69v6.49H323.9z"/>
			<path class="st0" d="M366.91,400.66c-11.03,0-16.54-8.2-16.54-24.61c0-16.86,5.51-25.29,16.54-25.29
				c11.03,0,16.54,8.43,16.54,25.29C383.45,392.46,377.93,400.66,366.91,400.66z M366.91,394.37c6.15,0,9.23-6.11,9.23-18.32
				c0-12.67-3.08-19-9.23-19s-9.23,6.33-9.23,19C357.68,388.26,360.75,394.37,366.91,394.37z M366.91,381.18
				c-1.53,0-2.76-0.47-3.71-1.42c-0.95-0.95-1.42-2.18-1.42-3.71c0-1.55,0.47-2.79,1.42-3.73c0.95-0.93,2.18-1.4,3.71-1.4
				c1.55,0,2.79,0.47,3.73,1.4c0.93,0.93,1.4,2.18,1.4,3.73c0,1.53-0.47,2.76-1.4,3.71C369.7,380.7,368.46,381.18,366.91,381.18z"/>
			<path class="st0" d="M398.97,399.98v-6.49h12.99v6.49H398.97z M399.65,362.45v-6.9l11.62-4.1v7.04L399.65,362.45z M411.27,399.98
				v-48.54h6.84v48.54H411.27z M417.43,399.98v-6.49h11.69v6.49H417.43z"/>
			<path class="st0" d="M229.47,484.66c-11.03,0-16.54-8.2-16.54-24.61c0-16.86,5.51-25.29,16.54-25.29
				c11.03,0,16.54,8.43,16.54,25.29C246.02,476.46,240.5,484.66,229.47,484.66z M229.47,478.37c6.15,0,9.23-6.11,9.23-18.32
				c0-12.67-3.08-19-9.23-19s-9.23,6.33-9.23,19C220.25,472.26,223.32,478.37,229.47,478.37z M229.47,465.18
				c-1.53,0-2.76-0.47-3.71-1.42c-0.95-0.95-1.42-2.18-1.42-3.71c0-1.55,0.47-2.79,1.42-3.73c0.95-0.93,2.18-1.4,3.71-1.4
				c1.55,0,2.79,0.47,3.73,1.4c0.93,0.93,1.4,2.18,1.4,3.73c0,1.53-0.47,2.76-1.4,3.71C232.27,464.7,231.02,465.18,229.47,465.18z"
				/>
			<path class="st0" d="M255.79,483.98v-6.49h12.99v6.49H255.79z M256.48,446.45v-6.9l11.62-4.1v7.04L256.48,446.45z M268.1,483.98
				v-48.54h6.84v48.54H268.1z M274.25,483.98v-6.49h11.69v6.49H274.25z"/>
		</g>
	</g>
</g>
<g id="Dino">
	<path id="Outline_00000052091694479828581810000004935374004062986669_" class="st1" d="M297.22,450c-14.15,0-25.69-3.21-34.3-9.53
		l-0.26-0.19c-11.46-9-12.08-19.58-13.09-37.12c-0.72-12.54-1.72-29.71-6.55-55.78c-3.45-18.64-7.91-34.42-10.26-42.16
		c-1.91-6.28-3.99-12.56-6.21-18.73c-11.82-0.67-35.33-3.05-53.23-7.04c-28.02-6.25-51.36-16.23-65.8-28.15
		c-3.86-2.62-7.56-5.75-11-9.33c-14.2-11.94-24.86-30.47-29.27-50.93c-4.71-21.82-1.95-43.1,7.77-59.93
		c15.3-26.96,37.03-47.81,64.56-61.9C164.12,56.64,192.79,50,222.5,50c36.17,0,72.17,9.74,101.37,27.44l0.11,0.07
		c35.8,22.31,57.15,50.39,61.77,81.24c2.42,9.75,4.64,20.58,7.21,33.08c6.84,33.31,15.35,74.72,33.15,121.54
		c19.25,32.93,6.85,69.9-33.3,99.12C365.86,434.93,327.5,450,297.22,450C297.22,450,297.22,450,297.22,450z"/>
	<g id="Saur">
		<path id="Shadow_1_" class="st0" d="M417.04,318.4c-25.07-66.32-32.21-122.51-41.15-158.67c-4.84-34.02-30.7-58.77-57.25-75.48
			c-70.73-43.3-185.54-37.36-234.97,50.64C64.48,168.42,79.01,219.31,109,238.7c28.27,23.04,93.01,37.24,151.24,32.62
			c0.72,10.23-15.75,9.58-23.41,10.34c4.65,12.24,11.02,29.71,16.86,60.37c11.83,62.15,2.07,76.67,16.6,87.78
			C313.95,461.01,460.48,391.36,417.04,318.4z"/>
		<path id="Body" class="st2" d="M410.25,322.94c-24.15-66.32-31.03-122.51-39.64-158.67c-4.66-34.02-29.57-58.77-55.15-75.48
			c-68.13-43.3-178.73-37.36-226.35,50.64c-18.48,33.54-4.49,84.42,24.4,103.81c27.23,23.04,89.6,37.24,145.69,32.62
			c0.69,10.23-15.17,9.58-22.55,10.34c4.48,12.24,10.62,29.71,16.24,60.37c11.4,62.15,1.99,76.67,15.99,87.78
			C310.94,465.55,452.09,395.9,410.25,322.94z"/>
		<circle id="Eye" class="st1" cx="242" cy="148" r="25"/>
	</g>
</g>
</svg>
